<svg xmlns="http://www.w3.org/2000/svg" width="396.173" height="282.076" viewBox="0 0 396.173 282.076">
  <g id="Grupo_699" data-name="Grupo 699" transform="translate(-956.83 -98.806)">
    <path id="Trazado_2173" data-name="Trazado 2173" d="M1018.651,244.73l.846-4.936-3.586-3.5,4.956-.719,2.216-4.492,2.218,4.492,4.956.719-3.586,3.5.846,4.936-4.434-2.33Zm275.465-8.433-4.957-.719-2.217-4.492-2.216,4.492-4.956.719,3.586,3.5-.846,4.936,4.432-2.33,4.434,2.33-.847-4.936ZM1021.532,209.2l4.885-1.1,3.679,3.4.46-4.987,4.369-2.449-4.6-1.978-.979-4.913-3.3,3.765-4.975-.587,2.56,4.3Zm22.638-43.169-4.165,2.782-4.653-1.855,1.358,4.821-3.2,3.852,5,.2,2.674,4.235,1.736-4.7,4.853-1.235-3.932-3.1Zm22.379-26.24-4.743,1.609-4.014-3,.063,5.008-4.089,2.892,4.783,1.486,1.487,4.784,2.892-4.089,5.008.064-3-4.015Zm23.41-19.226-3.1-3.933-1.234,4.855-4.7,1.735,4.235,2.673.2,5.005,3.852-3.2,4.821,1.358-1.855-4.653,2.782-4.166Zm25.466-4.047,4.549-2.1,4.306,2.559-.588-4.975,3.765-3.3-4.912-.978-1.979-4.6-2.448,4.37-4.988.46,3.4,3.678Zm75.411,249.947-1.978-4.6-2.449,4.37-4.987.46,3.4,3.678-1.1,4.886,4.549-2.1,4.305,2.559-.587-4.974,3.765-3.3ZM1156.624,98.806l-3.5,3.586-4.936-.846,2.331,4.432-2.331,4.434,4.936-.847,3.5,3.587.72-4.957,4.492-2.217-4.492-2.216Zm0,267.729-3.5,3.587-4.936-.847,2.331,4.433-2.331,4.434,4.936-.847,3.5,3.587.72-4.957,4.492-2.217-4.492-2.216Zm35.947-262.573-4.305,2.559-4.549-2.1,1.1,4.885-3.4,3.679,4.987.46,2.449,4.37,1.978-4.6,4.913-.979-3.765-3.3ZM1124.28,362.7l-4.306,2.559-4.549-2.1,1.1,4.885-3.4,3.679,4.988.461,2.448,4.369,1.979-4.6,4.912-.979-3.765-3.3Zm101.679-244.454-4.821,1.358-3.851-3.2-.2,5-4.235,2.674,4.7,1.735,1.235,4.854,3.1-3.933,5,.326L1224.1,122.9Zm20.653,18.414-1.486,4.782-4.784,1.487,4.09,2.892-.064,5.009,4.014-3,4.744,1.609-1.609-4.744,2.995-4.014-5.008.064Zm17.248,40.264,4.653-1.855,4.166,2.781-.327-5,3.933-3.1-4.854-1.234-1.735-4.7-2.674,4.234-5.005.2,3.2,3.852Zm12.075,30.249,4.975-.587,3.3,3.765.978-4.913,4.6-1.978-4.369-2.449-.461-4.987-3.678,3.4-4.885-1.1,2.094,4.549Z" fill="#db9600" opacity="0.8"/>
    <g id="Grupo_687" data-name="Grupo 687" opacity="0.7">
      <path id="Trazado_2174" data-name="Trazado 2174" d="M1236.182,156.648a114.923,114.923,0,1,0,0,162.52A114.932,114.932,0,0,0,1236.182,156.648ZM1154.917,347.4a109.489,109.489,0,1,1,109.488-109.489A109.614,109.614,0,0,1,1154.917,347.4Z" fill="#f2e7cb"/>
      <path id="Trazado_2175" data-name="Trazado 2175" d="M1154.917,131.221A106.687,106.687,0,1,0,1261.6,237.908,106.807,106.807,0,0,0,1154.917,131.221Zm41.838,31.848c3.778-5.76,10.458-6.314,15.951-.813l17.858,17.858c3.536,3.536,4.57,7.558,3.327,10.983-.045.124-.111.242-.162.364a8.222,8.222,0,0,1-.335.752,12.007,12.007,0,0,1-6.422,5.284l-35.632,16.665c-8.255,3.274-15.351-3.822-12.076-12.077l16.059-36.228A15.439,15.439,0,0,1,1196.755,163.069Zm-63.99-15.161c1.768-2.687,5.088-4.355,9.532-4.355h25.252c8.886,0,13.27,6.669,9.747,14.831l-13.414,36.969a12.063,12.063,0,0,1-.735,1.436c-4.017,6.7-13.039,6.22-16.34-1.433l-14.268-36.97C1130.777,154.3,1130.995,150.6,1132.765,147.908Zm-55.482,34.625a15.408,15.408,0,0,1,1.99-2.419l17.858-17.858c6.277-6.277,14.106-4.666,17.381,3.6l16.655,35.623a9.826,9.826,0,0,1-.2,8.317c-2,3.807-6.709,5.809-11.869,3.761L1082.862,197.5C1075.638,194.631,1073.495,188.285,1077.283,182.533Zm-16.722,68V225.281a12.72,12.72,0,0,1,1.8-6.911c2.52-3.949,7.43-5.266,13.041-2.839l36.97,13.407c5.607,2.422,7.357,7.924,5.254,12.27a10.129,10.129,0,0,1-5.255,4.815l-36.97,14.259C1067.238,263.8,1060.561,259.421,1060.561,250.534Zm53.284,60.9c-3.581,6.963-10.823,8.012-16.715,2.119l-17.859-17.85c-3.536-3.536-4.569-7.558-3.326-10.984.965-2.663,3.307-4.966,6.919-6.4l35.63-16.664c8.264-3.275,15.351,3.812,12.077,12.076l-16.059,36.228Q1114.2,310.731,1113.845,311.43Zm63.229,16.472c-1.767,2.688-5.084,4.358-9.528,4.358H1142.3c-8.887,0-13.279-6.678-9.756-14.83l9.716-26.777,3.7-10.2c3.523-8.162,13.551-8.162,17.074-.009l14.267,36.978C1179.058,321.5,1178.842,325.213,1177.074,327.9Zm56.74-37.109c-.007.019-.019.039-.026.058a10.919,10.919,0,0,1-.515,1.189,14.44,14.44,0,0,1-2.711,3.659l-17.858,17.85c-6.278,6.286-14.1,4.674-17.381-3.59l-16.655-35.631a9.831,9.831,0,0,1,.2-8.313c2-3.808,6.709-5.813,11.874-3.766l36.228,16.058C1233.166,280.77,1235.625,285.787,1233.814,290.793Zm10.423-15.338a1.706,1.706,0,0,1-1.574,1.044,1.68,1.68,0,0,1-.66-.133l-67.557-28.4c-.014-.007-.026-.016-.039-.022a22.016,22.016,0,0,1-9.656,9.554.376.376,0,0,1,.02.04l27.689,67.853a1.7,1.7,0,0,1-.935,2.223,1.686,1.686,0,0,1-.643.127,1.7,1.7,0,0,1-1.58-1.061l-27.689-67.853c-.005-.015-.006-.029-.012-.043a22.023,22.023,0,0,1-13.585-.072.313.313,0,0,1-.013.043l-28.4,67.558a1.705,1.705,0,1,1-3.144-1.321l28.4-67.557c.007-.016.015-.027.021-.04a22.007,22.007,0,0,1-9.553-9.656c-.016.007-.027.015-.04.021l-67.853,27.689a1.682,1.682,0,0,1-.644.126,1.705,1.705,0,0,1-.645-3.284L1134,244.6c.014-.006.029-.007.042-.013a22.011,22.011,0,0,1,.073-13.584c-.015,0-.03-.007-.044-.013l-67.558-28.4a1.705,1.705,0,1,1,1.322-3.144l67.558,28.4c.015.006.027.016.04.022a22.031,22.031,0,0,1,9.659-9.554c-.007-.015-.018-.027-.025-.042l-27.688-67.851a1.705,1.705,0,1,1,3.158-1.289l27.688,67.851c.007.015.008.031.015.047a22.023,22.023,0,0,1,13.582.071.475.475,0,0,1,.013-.046l28.4-67.558a1.705,1.705,0,1,1,3.144,1.322l-28.4,67.556c-.007.016-.018.027-.025.042a22.025,22.025,0,0,1,9.558,9.656c.015-.007.026-.016.041-.022l67.851-27.688a1.705,1.705,0,1,1,1.289,3.158l-67.85,27.688c-.014.005-.03.008-.043.014a22.027,22.027,0,0,1-.073,13.583.385.385,0,0,1,.044.013l67.558,28.4A1.707,1.707,0,0,1,1244.237,275.455Zm2.495-17c-2.673,3.146-7.193,4.034-12.289,1.832l-36.98-13.415c-5.6-2.422-7.356-7.921-5.252-12.265a10.132,10.132,0,0,1,5.255-4.812l36.978-14.259c8.153-3.53,14.831.861,14.831,9.748v25.252A12.008,12.008,0,0,1,1246.732,258.45Z" fill="#f2e7cb"/>
      <path id="Trazado_2176" data-name="Trazado 2176" d="M1154.917,219.4A18.507,18.507,0,1,0,1168,224.826,18.38,18.38,0,0,0,1154.917,219.4Zm5.27,23.769a7.45,7.45,0,1,1,0-10.532A7.458,7.458,0,0,1,1160.187,243.174Z" fill="#f2e7cb"/>
    </g>
    <g id="Grupo_693" data-name="Grupo 693">
      <g id="Grupo_690" data-name="Grupo 690">
        <path id="Trazado_2177" data-name="Trazado 2177" d="M1216.615,210.5H1094.045v80.329h123.635V210.5Z" fill="#061d1e"/>
        <g id="Grupo_688" data-name="Grupo 688">
          <path id="Trazado_2178" data-name="Trazado 2178" d="M1107.909,204.86v-.115h-15.281v11.7H1219.1V204.86Z" fill="#ebebeb"/>
          <path id="Trazado_2179" data-name="Trazado 2179" d="M1098.9,204.86h13.289L1100.6,216.444h-7.974v-5.316Zm14.657,11.584h13.289l11.583-11.584h-13.289Zm90.122-11.584-11.581,11.584h13.288l11.583-11.584Zm-37.82,11.584h13.288l11.583-11.584h-13.289Zm-26.063,0h13.289l11.583-11.584h-13.289Z" fill="#021111"/>
        </g>
        <g id="Grupo_689" data-name="Grupo 689">
          <path id="Trazado_2180" data-name="Trazado 2180" d="M1201.7,237.391v1.429h-91.679v-1.429Zm-91.679,17.615H1201.7v-1.429h-91.679Z" fill="#dd474d"/>
        </g>
      </g>
      <g id="Grupo_691" data-name="Grupo 691">
        <path id="Trazado_2181" data-name="Trazado 2181" d="M1090.737,196.255l2.767,5.807c2.151.8,4.206,1.847,6.344,2.683l110.044-52.429-4.983-10.457Z" fill="#ebebeb"/>
        <path id="Trazado_2182" data-name="Trazado 2182" d="M1121.616,181.542l15.44,5.475-12,5.717-15.439-5.476Zm-30.879,14.713,2.29,4.8,8.344,2.959,12-5.716-15.439-5.475Zm66.1-31.493,15.439,5.475,12-5.716-15.439-5.474Zm35.685-17-12,5.717,15.439,5.474,12-5.715Zm-59.213,28.212,15.439,5.475,12-5.716-15.439-5.474Z" fill="#021111"/>
      </g>
      <g id="Grupo_692" data-name="Grupo 692">
        <path id="Trazado_2183" data-name="Trazado 2183" d="M1106.319,211.146a5.294,5.294,0,0,0-.273-1.4l-4.234-11.342a3.975,3.975,0,0,0-2.063-2.333,3.721,3.721,0,0,0-5.919,3v12.68a4,4,0,0,0,4.083,3.919h4.032A4.3,4.3,0,0,0,1106.319,211.146Z" fill="#ebebeb"/>
        <circle id="Elipse_84" data-name="Elipse 84" cx="1.643" cy="1.643" r="1.643" transform="translate(1096.019 210.119)" fill="#3b1717"/>
        <path id="Trazado_2184" data-name="Trazado 2184" d="M1104.323,211.762a1.643,1.643,0,1,1-1.643-1.643A1.643,1.643,0,0,1,1104.323,211.762Z" fill="#3b1717"/>
        <path id="Trazado_2185" data-name="Trazado 2185" d="M1099.305,199.114a1.643,1.643,0,1,1-1.643-1.643A1.643,1.643,0,0,1,1099.305,199.114Z" fill="#3b1717"/>
      </g>
    </g>
    <g id="Grupo_698" data-name="Grupo 698">
      <g id="Grupo_694" data-name="Grupo 694">
        <path id="Trazado_2186" data-name="Trazado 2186" d="M1001.045,252.532c-36.533,0-44.215,6.207-44.215,9.935V345.32c0-2.882,4.6-7.246,23.559-9.076,5.565-.532,12.366-.855,20.656-.855h62.37V252.534Z" fill="#00424a"/>
        <path id="Trazado_2187" data-name="Trazado 2187" d="M961.519,269.346a25.656,25.656,0,0,1,8.641-3.226v-5.971a26.876,26.876,0,0,0-8.641,2.943Z" fill="#e1dcb0"/>
        <path id="Trazado_2188" data-name="Trazado 2188" d="M1000.966,257.77c-3.533-.013-6.817.035-9.882.133v5.857c3.065-.1,6.349-.148,9.882-.135l.512,0v-5.855Z" fill="#e1dcb0"/>
        <path id="Trazado_2189" data-name="Trazado 2189" d="M975.2,264.99c3.075-.417,6.524-.748,10.395-.98v-5.863c-3.871.224-7.32.54-10.395.929Z" fill="#e1dcb0"/>
        <rect id="Rectángulo_586" data-name="Rectángulo 586" width="9.582" height="5.856" transform="translate(1038.697 257.771)" fill="#e1dcb0"/>
        <rect id="Rectángulo_587" data-name="Rectángulo 587" width="9.582" height="5.856" transform="translate(1022.891 257.771)" fill="#e1dcb0"/>
        <rect id="Rectángulo_588" data-name="Rectángulo 588" width="9.582" height="5.856" transform="translate(1007.084 257.771)" fill="#e1dcb0"/>
        <rect id="Rectángulo_589" data-name="Rectángulo 589" width="9.582" height="5.856" transform="translate(1022.891 324.296)" fill="#e1dcb0"/>
        <rect id="Rectángulo_590" data-name="Rectángulo 590" width="9.582" height="5.856" transform="translate(1008.245 324.296)" fill="#e1dcb0"/>
        <path id="Trazado_2190" data-name="Trazado 2190" d="M1035.194,264.027h-.005v82.859l28.226-11.5V252.534Z" fill="#061d1e"/>
        <rect id="Rectángulo_591" data-name="Rectángulo 591" width="58.559" height="82.854" transform="translate(1035.189 264.031)" fill="#006878"/>
        <rect id="Rectángulo_592" data-name="Rectángulo 592" width="9.326" height="5.856" transform="translate(1069.612 269.269)" fill="#e1dcb0"/>
        <rect id="Rectángulo_593" data-name="Rectángulo 593" width="9.326" height="5.856" transform="translate(1055.358 269.269)" fill="#e1dcb0"/>
        <rect id="Rectángulo_594" data-name="Rectángulo 594" width="9.326" height="5.856" transform="translate(1040.329 269.269)" fill="#e1dcb0"/>
        <rect id="Rectángulo_595" data-name="Rectángulo 595" width="9.326" height="5.856" transform="translate(1055.358 335.792)" fill="#e1dcb0"/>
        <rect id="Rectángulo_596" data-name="Rectángulo 596" width="9.326" height="5.856" transform="translate(1040.329 335.792)" fill="#e1dcb0"/>
        <path id="Trazado_2191" data-name="Trazado 2191" d="M1065.527,275.524h-.005v82.859l28.226-11.5V264.031Z" fill="#061d1e"/>
        <path id="Trazado_2192" data-name="Trazado 2192" d="M981.413,270.518c-15.193,0-24.583-3.53-24.583-8.051V345.32c0,4.636,9.162,8.438,24.583,8.438,16.218,0,27.315-3.972,28.476-6.533V264.373c-1.161,1.2-6.283,6.145-28.476,6.145Z" fill="#007d8f"/>
        <path id="Trazado_2193" data-name="Trazado 2193" d="M971.146,340.857v6a68.5,68.5,0,0,0,9.306.7v-6a68.336,68.336,0,0,1-9.306-.7Z" fill="#e1dcb0"/>
        <path id="Trazado_2194" data-name="Trazado 2194" d="M959.991,337.093v6a19.549,19.549,0,0,0,6.335,2.774v-6a19.549,19.549,0,0,1-6.335-2.774Z" fill="#e1dcb0"/>
        <path id="Trazado_2195" data-name="Trazado 2195" d="M985.6,341.466v6a79.033,79.033,0,0,0,9.1-.92v-6a79.251,79.251,0,0,1-9.1.92Z" fill="#e1dcb0"/>
        <path id="Trazado_2196" data-name="Trazado 2196" d="M999.066,345.673c2.761-.669,4.967-1.453,7.662-2.247v-6c-2.7.793-4.9,1.577-7.662,2.246Z" fill="#e1dcb0"/>
        <path id="Trazado_2197" data-name="Trazado 2197" d="M1006.728,278.61v-6c-2.694.793-4.9,1.577-7.662,2.247v6c2.761-.669,4.968-1.453,7.662-2.246Z" fill="#e1dcb0"/>
        <path id="Trazado_2198" data-name="Trazado 2198" d="M966.325,275.051a19.552,19.552,0,0,1-6.334-2.774v6a19.573,19.573,0,0,0,6.334,2.775Z" fill="#e1dcb0"/>
        <path id="Trazado_2199" data-name="Trazado 2199" d="M980.452,282.74v-6.005a68.354,68.354,0,0,1-9.306-.694v6.005a68.5,68.5,0,0,0,9.306.694Z" fill="#e1dcb0"/>
        <path id="Trazado_2200" data-name="Trazado 2200" d="M994.7,281.733v-6a79.028,79.028,0,0,1-9.1.92v6a79.259,79.259,0,0,0,9.1-.919Z" fill="#e1dcb0"/>
      </g>
      <g id="Grupo_697" data-name="Grupo 697">
        <path id="Trazado_2201" data-name="Trazado 2201" d="M1308.788,252.532c36.533,0,44.215,6.207,44.215,9.935V345.32c0-2.882-4.6-7.246-23.559-9.076-5.565-.532-12.367-.855-20.656-.855h-62.37V252.534Z" fill="#00424a"/>
        <path id="Trazado_2202" data-name="Trazado 2202" d="M1348.314,269.346a25.656,25.656,0,0,0-8.641-3.226v-5.971a26.876,26.876,0,0,1,8.641,2.943Z" fill="#e1dcb0"/>
        <path id="Trazado_2203" data-name="Trazado 2203" d="M1308.867,257.77c3.533-.013,6.818.035,9.882.133v5.857c-3.064-.1-6.349-.148-9.882-.135l-.512,0v-5.855Z" fill="#e1dcb0"/>
        <path id="Trazado_2204" data-name="Trazado 2204" d="M1334.636,264.99c-3.075-.417-6.524-.748-10.4-.98v-5.863c3.871.224,7.32.54,10.4.929Z" fill="#e1dcb0"/>
        <rect id="Rectángulo_597" data-name="Rectángulo 597" width="9.582" height="5.856" transform="translate(1261.554 257.771)" fill="#e1dcb0"/>
        <rect id="Rectángulo_598" data-name="Rectángulo 598" width="9.582" height="5.856" transform="translate(1277.361 257.771)" fill="#e1dcb0"/>
        <rect id="Rectángulo_599" data-name="Rectángulo 599" width="9.582" height="5.856" transform="translate(1293.168 257.771)" fill="#e1dcb0"/>
        <rect id="Rectángulo_600" data-name="Rectángulo 600" width="9.582" height="5.856" transform="translate(1277.361 324.296)" fill="#e1dcb0"/>
        <rect id="Rectángulo_601" data-name="Rectángulo 601" width="9.582" height="5.856" transform="translate(1292.006 324.296)" fill="#e1dcb0"/>
        <path id="Trazado_2205" data-name="Trazado 2205" d="M1274.639,264.027h.005v82.859l-28.226-11.5V252.534Z" fill="#061d1e"/>
        <rect id="Rectángulo_602" data-name="Rectángulo 602" width="58.558" height="82.854" transform="translate(1216.086 264.031)" fill="#006878"/>
        <rect id="Rectángulo_603" data-name="Rectángulo 603" width="9.326" height="5.856" transform="translate(1230.895 269.269)" fill="#e1dcb0"/>
        <rect id="Rectángulo_604" data-name="Rectángulo 604" width="9.326" height="5.856" transform="translate(1245.149 269.269)" fill="#e1dcb0"/>
        <rect id="Rectángulo_605" data-name="Rectángulo 605" width="9.326" height="5.856" transform="translate(1260.177 269.269)" fill="#e1dcb0"/>
        <rect id="Rectángulo_606" data-name="Rectángulo 606" width="9.326" height="5.856" transform="translate(1245.149 335.792)" fill="#e1dcb0"/>
        <rect id="Rectángulo_607" data-name="Rectángulo 607" width="9.326" height="5.856" transform="translate(1260.177 335.792)" fill="#e1dcb0"/>
        <path id="Trazado_2206" data-name="Trazado 2206" d="M1244.307,275.524h.005v82.859l-28.226-11.5V264.031Z" fill="#061d1e"/>
        <path id="Trazado_2207" data-name="Trazado 2207" d="M1328.42,270.518c15.193,0,24.583-3.53,24.583-8.051V345.32c0,4.636-9.162,8.438-24.583,8.438-16.218,0-27.315-3.972-28.477-6.533V264.373c1.162,1.2,6.284,6.145,28.477,6.145Z" fill="#007d8f"/>
        <path id="Trazado_2208" data-name="Trazado 2208" d="M1338.688,340.857v6a68.526,68.526,0,0,1-9.307.7v-6a68.364,68.364,0,0,0,9.307-.7Z" fill="#e1dcb0"/>
        <path id="Trazado_2209" data-name="Trazado 2209" d="M1349.842,337.093v6a19.55,19.55,0,0,1-6.335,2.774v-6a19.55,19.55,0,0,0,6.335-2.774Z" fill="#e1dcb0"/>
        <path id="Trazado_2210" data-name="Trazado 2210" d="M1324.229,341.466v6a79.054,79.054,0,0,1-9.1-.92v-6a79.272,79.272,0,0,0,9.1.92Z" fill="#e1dcb0"/>
        <path id="Trazado_2211" data-name="Trazado 2211" d="M1310.767,345.673c-2.761-.669-4.967-1.453-7.662-2.247v-6c2.7.793,4.9,1.577,7.662,2.246Z" fill="#e1dcb0"/>
        <path id="Trazado_2212" data-name="Trazado 2212" d="M1303.1,278.61v-6c2.694.793,4.9,1.577,7.662,2.247v6c-2.761-.669-4.968-1.453-7.662-2.246Z" fill="#e1dcb0"/>
        <path id="Trazado_2213" data-name="Trazado 2213" d="M1343.507,275.051a19.55,19.55,0,0,0,6.335-2.774v6a19.561,19.561,0,0,1-6.335,2.775Z" fill="#e1dcb0"/>
        <path id="Trazado_2214" data-name="Trazado 2214" d="M1329.381,282.74v-6.005a68.342,68.342,0,0,0,9.306-.694v6.005a68.5,68.5,0,0,1-9.306.694Z" fill="#e1dcb0"/>
        <path id="Trazado_2215" data-name="Trazado 2215" d="M1315.132,281.733v-6a79.054,79.054,0,0,0,9.1.92v6a79.284,79.284,0,0,1-9.1-.919Z" fill="#e1dcb0"/>
        <path id="Trazado_2216" data-name="Trazado 2216" d="M1154.917,275.526h-89.394V358.38h178.789V275.526Z" fill="#008da3"/>
        <g id="Grupo_695" data-name="Grupo 695">
          <rect id="Rectángulo_608" data-name="Rectángulo 608" width="9.326" height="5.856" transform="translate(1142.846 347.287)" fill="#e1dcb0"/>
          <rect id="Rectángulo_609" data-name="Rectángulo 609" width="9.326" height="5.856" transform="translate(1128.591 347.287)" fill="#e1dcb0"/>
          <rect id="Rectángulo_610" data-name="Rectángulo 610" width="9.326" height="5.856" transform="translate(1114.337 347.287)" fill="#e1dcb0"/>
          <rect id="Rectángulo_611" data-name="Rectángulo 611" width="9.326" height="5.856" transform="translate(1100.083 347.287)" fill="#e1dcb0"/>
          <rect id="Rectángulo_612" data-name="Rectángulo 612" width="9.326" height="5.856" transform="translate(1085.829 347.287)" fill="#e1dcb0"/>
          <rect id="Rectángulo_613" data-name="Rectángulo 613" width="9.326" height="5.856" transform="translate(1071.575 347.287)" fill="#e1dcb0"/>
          <rect id="Rectángulo_614" data-name="Rectángulo 614" width="9.326" height="5.856" transform="translate(1142.846 280.763)" fill="#e1dcb0"/>
          <rect id="Rectángulo_615" data-name="Rectángulo 615" width="9.326" height="5.856" transform="translate(1128.591 280.763)" fill="#e1dcb0"/>
          <rect id="Rectángulo_616" data-name="Rectángulo 616" width="9.326" height="5.856" transform="translate(1114.337 280.763)" fill="#e1dcb0"/>
          <rect id="Rectángulo_617" data-name="Rectángulo 617" width="9.326" height="5.856" transform="translate(1100.083 280.763)" fill="#e1dcb0"/>
          <rect id="Rectángulo_618" data-name="Rectángulo 618" width="9.326" height="5.856" transform="translate(1085.829 280.763)" fill="#e1dcb0"/>
          <rect id="Rectángulo_619" data-name="Rectángulo 619" width="9.326" height="5.856" transform="translate(1071.575 280.763)" fill="#e1dcb0"/>
        </g>
        <g id="Grupo_696" data-name="Grupo 696">
          <rect id="Rectángulo_620" data-name="Rectángulo 620" width="9.326" height="5.856" transform="translate(1157.662 347.287)" fill="#e1dcb0"/>
          <rect id="Rectángulo_621" data-name="Rectángulo 621" width="9.326" height="5.856" transform="translate(1171.916 347.287)" fill="#e1dcb0"/>
          <rect id="Rectángulo_622" data-name="Rectángulo 622" width="9.326" height="5.856" transform="translate(1186.17 347.287)" fill="#e1dcb0"/>
          <rect id="Rectángulo_623" data-name="Rectángulo 623" width="9.326" height="5.856" transform="translate(1200.424 347.287)" fill="#e1dcb0"/>
          <rect id="Rectángulo_624" data-name="Rectángulo 624" width="9.326" height="5.856" transform="translate(1214.678 347.287)" fill="#e1dcb0"/>
          <rect id="Rectángulo_625" data-name="Rectángulo 625" width="9.326" height="5.856" transform="translate(1228.932 347.287)" fill="#e1dcb0"/>
          <rect id="Rectángulo_626" data-name="Rectángulo 626" width="9.326" height="5.856" transform="translate(1157.662 280.763)" fill="#e1dcb0"/>
          <rect id="Rectángulo_627" data-name="Rectángulo 627" width="9.326" height="5.856" transform="translate(1171.916 280.763)" fill="#e1dcb0"/>
          <rect id="Rectángulo_628" data-name="Rectángulo 628" width="9.326" height="5.856" transform="translate(1186.17 280.763)" fill="#e1dcb0"/>
          <rect id="Rectángulo_629" data-name="Rectángulo 629" width="9.326" height="5.856" transform="translate(1200.424 280.763)" fill="#e1dcb0"/>
          <rect id="Rectángulo_630" data-name="Rectángulo 630" width="9.326" height="5.856" transform="translate(1214.678 280.763)" fill="#e1dcb0"/>
          <rect id="Rectángulo_631" data-name="Rectángulo 631" width="9.326" height="5.856" transform="translate(1228.932 280.763)" fill="#e1dcb0"/>
        </g>
      </g>
    </g>
  </g>
</svg>
