<svg xmlns="http://www.w3.org/2000/svg" width="565.474" height="350.411" viewBox="0 0 565.474 350.411">
  <g id="Grupo_396" data-name="Grupo 396" transform="translate(-2095.002 -1050.043)">
    <g id="Grupo_306" data-name="Grupo 306">
      <g id="Grupo_302" data-name="Grupo 302">
        <path id="Trazado_550" data-name="Trazado 550" d="M2145.079,1152.668h-23.893v-14.652h23.893Zm-23.1-.791h22.311v-13.07h-22.311Z" fill="#78abd4"/>
      </g>
      <g id="Grupo_303" data-name="Grupo 303">
        <path id="Trazado_551" data-name="Trazado 551" d="M2150.064,1149.426l-5.776-1.08v-6.007l5.776-1.08Zm-4.985-1.737,4.194.784v-6.262l-4.194.785Z" fill="#78abd4"/>
      </g>
      <g id="Grupo_304" data-name="Grupo 304">
        <path id="Trazado_552" data-name="Trazado 552" d="M2138.847,1138.321a6.718,6.718,0,1,1,6.718-6.718A6.726,6.726,0,0,1,2138.847,1138.321Zm0-12.646a5.927,5.927,0,1,0,5.927,5.928A5.934,5.934,0,0,0,2138.847,1125.675Z" fill="#78abd4"/>
      </g>
      <g id="Grupo_305" data-name="Grupo 305">
        <path id="Trazado_553" data-name="Trazado 553" d="M2126.688,1138.2a4.164,4.164,0,1,1,4.165-4.165A4.17,4.17,0,0,1,2126.688,1138.2Zm0-7.538a3.373,3.373,0,1,0,3.374,3.373A3.377,3.377,0,0,0,2126.688,1130.661Z" fill="#78abd4"/>
      </g>
    </g>
    <g id="Grupo_307" data-name="Grupo 307">
      <path id="Trazado_554" data-name="Trazado 554" d="M2195.907,1127.273q.422.284.832.575a.439.439,0,0,1,.1.614.452.452,0,0,1-.614.1,40.583,40.583,0,0,0-4.45-2.74.441.441,0,0,1,.412-.779A41.456,41.456,0,0,1,2195.907,1127.273Zm4.926,3.894a.537.537,0,0,1,.053.043,40.753,40.753,0,0,1,3.673,3.876.441.441,0,0,1-.679.563,39.576,39.576,0,0,0-3.592-3.792.441.441,0,0,1,.545-.69Zm-13.421-8.256a.44.44,0,0,1-.4.778,39.841,39.841,0,0,0-5-1.491.44.44,0,0,1,.195-.859,40.505,40.505,0,0,1,5.116,1.524A.452.452,0,0,1,2187.412,1122.911Zm20.152,16.373a.438.438,0,0,1,.127.131,40.89,40.89,0,0,1,2.536,4.7.441.441,0,0,1-.8.367,39.808,39.808,0,0,0-2.481-4.6.441.441,0,0,1,.62-.6Zm-30.429-18.711a.44.44,0,0,1-.286.8,40.111,40.111,0,0,0-5.223-.138.441.441,0,0,1-.034-.881,40.969,40.969,0,0,1,5.338.142A.431.431,0,0,1,2177.135,1120.573Zm34.815,28.3a.436.436,0,0,1,.176.236,41.307,41.307,0,0,1,1.233,5.2.441.441,0,1,1-.869.147,40.125,40.125,0,0,0-1.207-5.083.441.441,0,0,1,.292-.551A.436.436,0,0,1,2211.95,1148.874Zm-45.349-27.892a.441.441,0,0,1-.172.8,40.233,40.233,0,0,0-5.082,1.214.441.441,0,0,1-.261-.842,41.276,41.276,0,0,1,5.2-1.241A.439.439,0,0,1,2166.6,1120.982Zm47.111,38.284a.439.439,0,0,1,.194.35,40.949,40.949,0,0,1-.148,5.335.44.44,0,1,1-.877-.082,40.216,40.216,0,0,0,.145-5.22.441.441,0,0,1,.686-.383Zm-57.185-35.171a.441.441,0,0,1-.062.766,40,40,0,0,0-4.6,2.486.44.44,0,0,1-.469-.745,40.661,40.661,0,0,1,4.7-2.542A.439.439,0,0,1,2156.527,1124.095Zm56.2,45.661a.439.439,0,0,1,.183.464,40.453,40.453,0,0,1-1.531,5.116.441.441,0,0,1-.826-.308,39.669,39.669,0,0,0,1.5-5.005.44.44,0,0,1,.527-.331A.425.425,0,0,1,2212.73,1169.756Zm-3.681,9.877a.44.44,0,0,1,.143.572,41.324,41.324,0,0,1-2.2,3.672q-.3.441-.6.871a.441.441,0,0,1-.719-.51q.3-.422.589-.853a40.544,40.544,0,0,0,2.156-3.593.441.441,0,0,1,.6-.183Zm-6.107,8.592a.465.465,0,0,1,.055.043.441.441,0,0,1,.023.623,40.607,40.607,0,0,1-3.881,3.668.44.44,0,0,1-.561-.679,39.812,39.812,0,0,0,3.8-3.588A.44.44,0,0,1,2202.942,1188.225Zm-8.123,6.722a.435.435,0,0,1,.127.132.44.44,0,0,1-.139.607,40.986,40.986,0,0,1-4.7,2.53.441.441,0,1,1-.366-.8,39.921,39.921,0,0,0,4.6-2.475A.442.442,0,0,1,2194.819,1194.947Zm-61.591-38.09a.439.439,0,0,1,.193.408,40.126,40.126,0,0,0-.157,5.223.441.441,0,1,1-.881.031,40.987,40.987,0,0,1,.161-5.338.441.441,0,0,1,.481-.4A.428.428,0,0,1,2133.228,1156.857Zm52,42.465a.441.441,0,0,1-.118.787,41.272,41.272,0,0,1-5.2,1.227.441.441,0,0,1-.147-.869,40.111,40.111,0,0,0,5.086-1.2A.443.443,0,0,1,2185.225,1199.322Zm-51.626-31.928a.443.443,0,0,1,.189.293,40.1,40.1,0,0,0,1.195,5.087.441.441,0,1,1-.843.258,41.239,41.239,0,0,1-1.222-5.2.441.441,0,0,1,.681-.439Zm41.23,33.678a.441.441,0,0,1-.23.806,40.962,40.962,0,0,1-5.335-.154.441.441,0,0,1,.083-.878,39.864,39.864,0,0,0,5.22.151A.446.446,0,0,1,2174.829,1201.072Zm-38.155-23.592a.437.437,0,0,1,.155.183,39.957,39.957,0,0,0,2.469,4.6.441.441,0,0,1-.747.467,40.814,40.814,0,0,1-2.524-4.707.44.44,0,0,1,.647-.548Zm27.667,22.6a.441.441,0,0,1-.345.795,40.509,40.509,0,0,1-5.114-1.537.44.44,0,1,1,.309-.825,39.824,39.824,0,0,0,5,1.5A.437.437,0,0,1,2164.341,1200.077Zm-22.084-13.654a.453.453,0,0,1,.094.086,39.758,39.758,0,0,0,3.585,3.8.441.441,0,0,1-.6.646,40.636,40.636,0,0,1-3.664-3.887.441.441,0,0,1,.585-.647Zm12.212,9.962a.441.441,0,0,1-.454.754,41.269,41.269,0,0,1-4.539-2.81.441.441,0,1,1,.511-.718,40.637,40.637,0,0,0,4.442,2.75A.316.316,0,0,1,2154.469,1196.385Z" fill="#78abd4"/>
    </g>
    <g id="Grupo_308" data-name="Grupo 308">
      <path id="Trazado_555" data-name="Trazado 555" d="M2205.4,1385.288c-40.711-26.7-66.072-163.511,52.724-186.87s88.1-36.039,139.485-79.42,219.572-28.03,236.924,98.107c12.553,91.25-37.374,148.161-75.415,168.183Z" fill="#c6ebf1"/>
      <path id="Trazado_556" data-name="Trazado 556" d="M2368.854,1106.34a50.444,50.444,0,0,1-6.3,26.634c-29.627,54.153-108.832,46.9-132.454,17.058-25.361-32.035,22.024-97.439,69.409-72.746C2341.623,1099.236,2367.4,1076.891,2368.854,1106.34Z" fill="#c6ebf1"/>
      <path id="Rectángulo_493" data-name="Rectángulo 493" d="M12.522,0H396.236a12.522,12.522,0,0,1,12.522,12.522v3.5a0,0,0,0,1,0,0H0a0,0,0,0,1,0,0v-3.5A12.522,12.522,0,0,1,12.522,0Z" transform="translate(2165.528 1384.437)" fill="#008da3"/>
    </g>
    <g id="Grupo_321" data-name="Grupo 321">
      <g id="Grupo_312" data-name="Grupo 312">
        <g id="Grupo_309" data-name="Grupo 309">
          <path id="Trazado_557" data-name="Trazado 557" d="M2641.2,1103.6a.429.429,0,0,1,.178-.185.44.44,0,0,1,.6.168c.433.771.853,1.563,1.249,2.353a.44.44,0,1,1-.787.4c-.39-.778-.8-1.558-1.23-2.317A.438.438,0,0,1,2641.2,1103.6Z" fill="#78abd4"/>
        </g>
        <g id="Grupo_310" data-name="Grupo 310">
          <path id="Trazado_558" data-name="Trazado 558" d="M2644.388,1110.272a.441.441,0,0,1,.8.035c.592,1.477,1.129,3,1.595,4.522a.44.44,0,1,1-.842.258c-.46-1.5-.988-3-1.571-4.453A.439.439,0,0,1,2644.388,1110.272Zm2.784,9.092a.44.44,0,0,1,.824.1c.338,1.558.614,3.148.819,4.725a.44.44,0,1,1-.873.114c-.2-1.553-.474-3.118-.807-4.652A.437.437,0,0,1,2647.172,1119.364Zm1.23,9.428a.44.44,0,0,1,.833.177c.073,1.592.078,3.2.017,4.8a.441.441,0,0,1-.881-.034c.061-1.565.056-3.153-.016-4.72A.43.43,0,0,1,2648.4,1128.792Zm-.371,9.5a.441.441,0,0,1,.831.253c-.2,1.581-.463,3.172-.793,4.728a.441.441,0,1,1-.862-.182c.325-1.532.587-3.1.78-4.655A.452.452,0,0,1,2648.031,1138.291Z" fill="#78abd4"/>
        </g>
        <g id="Grupo_311" data-name="Grupo 311">
          <path id="Trazado_559" data-name="Trazado 559" d="M2646.062,1147.6a.441.441,0,0,1,.815.326c-.255.846-.534,1.7-.83,2.533a.441.441,0,0,1-.831-.3c.291-.821.566-1.66.817-2.492A.584.584,0,0,1,2646.062,1147.6Z" fill="#78abd4"/>
        </g>
      </g>
      <g id="Grupo_316" data-name="Grupo 316">
        <g id="Grupo_313" data-name="Grupo 313">
          <path id="Trazado_560" data-name="Trazado 560" d="M2633.549,1169.587a.442.442,0,0,1,.069-.1c.59-.643,1.171-1.307,1.727-1.974a.441.441,0,0,1,.677.565c-.565.677-1.155,1.352-1.755,2.005a.44.44,0,0,1-.718-.5Z" fill="#78abd4"/>
        </g>
        <g id="Grupo_314" data-name="Grupo 314">
          <path id="Trazado_561" data-name="Trazado 561" d="M2541.046,1106.572a.441.441,0,0,1,.79.392c-.778,1.595-1.486,3.243-2.107,4.9a.44.44,0,1,1-.825-.309c.63-1.679,1.35-3.352,2.139-4.973Zm2.575-4.715.017-.031c.937-1.54,1.957-3.049,3.031-4.487a.441.441,0,0,1,.706.528c-1.058,1.415-2.062,2.9-2.984,4.417a.441.441,0,0,1-.77-.427Zm-6.344,14.764a.44.44,0,0,1,.818.313c-.461,1.711-.846,3.463-1.142,5.208a.441.441,0,0,1-.869-.148c.3-1.772.691-3.552,1.161-5.289A.328.328,0,0,1,2537.277,1116.621Zm12.77-23.361a.418.418,0,0,1,.067-.1c1.21-1.332,2.5-2.621,3.829-3.83a.441.441,0,1,1,.593.652c-1.31,1.191-2.578,2.459-3.77,3.77a.44.44,0,0,1-.719-.494Zm-14.566,33.944a.44.44,0,0,1,.833.23c-.128,1.763-.172,3.556-.131,5.329a.441.441,0,0,1-.881.02c-.042-1.8,0-3.621.133-5.413A.42.42,0,0,1,2535.481,1127.2Zm22.51-41.164a.436.436,0,0,1,.13-.155c1.439-1.076,2.949-2.1,4.487-3.032a.44.44,0,1,1,.458.752c-1.514.922-3,1.926-4.418,2.986a.441.441,0,0,1-.657-.551Zm-22.263,51.9a.441.441,0,0,1,.831.146c.21,1.758.5,3.528.88,5.259a.441.441,0,0,1-.861.187c-.381-1.759-.681-3.556-.893-5.342A.44.44,0,0,1,2535.728,1137.935Zm31.433-57.478a.443.443,0,0,1,.2-.2c1.617-.785,3.292-1.5,4.978-2.132a.441.441,0,0,1,.309.826c-1.661.62-3.31,1.326-4.9,2.1a.441.441,0,0,1-.586-.595ZM2538,1148.428a.435.435,0,0,1,.26-.221.44.44,0,0,1,.553.286c.537,1.689,1.16,3.371,1.852,5a.441.441,0,0,1-.811.345c-.7-1.654-1.336-3.363-1.881-5.078A.442.442,0,0,1,2538,1148.428Zm39.221-71.726a.438.438,0,0,1,.279-.228c1.738-.468,3.518-.858,5.29-1.158a.44.44,0,0,1,.148.868c-1.745.3-3.5.681-5.209,1.141a.44.44,0,0,1-.54-.311A.428.428,0,0,1,2577.219,1076.7Zm-35.02,81.606a.44.44,0,0,1,.78-.011c.844,1.557,1.773,3.092,2.761,4.561a.441.441,0,1,1-.732.492c-1-1.493-1.946-3.052-2.8-4.634A.437.437,0,0,1,2542.2,1158.308Zm45.6-83.4a.44.44,0,0,1,.361-.242c1.794-.132,3.616-.179,5.413-.139a.441.441,0,1,1-.019.881c-1.77-.039-3.563.007-5.33.137a.44.44,0,0,1-.471-.407A.435.435,0,0,1,2587.8,1074.9Zm-39.616,92.314a.441.441,0,0,1,.734-.081c1.124,1.37,2.327,2.7,3.576,3.956a.441.441,0,0,1-.625.621c-1.268-1.275-2.49-2.627-3.632-4.018A.441.441,0,0,1,2548.187,1167.218Zm50.347-92.079a.44.44,0,0,1,.446-.239c1.786.211,3.583.511,5.341.892a.441.441,0,0,1-.187.861c-1.73-.375-3.5-.67-5.258-.878a.442.442,0,0,1-.386-.489A.476.476,0,0,1,2598.534,1075.139Zm-42.776,99.69a.481.481,0,0,1,.055-.084.441.441,0,0,1,.62-.058c1.362,1.129,2.795,2.206,4.262,3.2a.441.441,0,1,1-.5.729c-1.489-1.012-2.945-2.107-4.328-3.253A.441.441,0,0,1,2555.758,1174.829Zm53.267-97.418a.441.441,0,0,1,.527-.221c1.711.546,3.418,1.181,5.075,1.889a.441.441,0,1,1-.347.81c-1.63-.7-3.311-1.322-5-1.859a.442.442,0,0,1-.285-.554A.429.429,0,0,1,2609.025,1077.411Zm-44.39,103.451.008-.014a.439.439,0,0,1,.6-.174c.592.325,1.2.644,1.8.949.978.493,1.982.963,2.985,1.4a.441.441,0,1,1-.35.809c-1.018-.441-2.038-.919-3.031-1.419-.614-.31-1.23-.634-1.831-.964A.441.441,0,0,1,2564.635,1180.862Zm9.852,4.265a.441.441,0,0,1,.529-.221c1.686.548,3.416,1.02,5.144,1.4a.44.44,0,1,1-.191.86c-1.755-.39-3.513-.869-5.225-1.426a.437.437,0,0,1-.257-.617Zm10.479,2.328a.443.443,0,0,1,.448-.239c1.756.217,3.544.351,5.314.4a.441.441,0,0,1-.024.881c-1.8-.049-3.614-.185-5.4-.405a.441.441,0,0,1-.383-.492A.435.435,0,0,1,2584.966,1187.455Zm10.726.292a.442.442,0,0,1,.364-.241c1.765-.121,3.547-.328,5.3-.615a.44.44,0,1,1,.143.869c-1.776.293-3.585.5-5.378.625a.441.441,0,0,1-.47-.41A.454.454,0,0,1,2595.692,1187.747Zm10.592-1.742a.441.441,0,0,1,.282-.228c1.712-.45,3.423-.989,5.086-1.6a.441.441,0,1,1,.3.827c-1.689.621-3.427,1.167-5.166,1.626a.442.442,0,0,1-.506-.625Zm10.078-3.7a.436.436,0,0,1,.2-.2c1.6-.766,3.178-1.617,4.7-2.529a.441.441,0,0,1,.454.755c-1.541.927-3.146,1.791-4.769,2.569a.441.441,0,0,1-.584-.6Zm9.2-5.536a.435.435,0,0,1,.131-.156c1.425-1.053,2.815-2.188,4.132-3.372a.441.441,0,1,1,.59.655c-1.338,1.2-2.751,2.356-4.2,3.426a.441.441,0,0,1-.655-.553Z" fill="#78abd4"/>
        </g>
        <g id="Grupo_315" data-name="Grupo 315">
          <path id="Trazado_562" data-name="Trazado 562" d="M2618.97,1081.665l.006-.013a.442.442,0,0,1,.6-.176c.776.423,1.553.869,2.31,1.327a.441.441,0,0,1-.457.754c-.745-.451-1.51-.891-2.274-1.307A.44.44,0,0,1,2618.97,1081.665Z" fill="#78abd4"/>
        </g>
      </g>
      <g id="Grupo_320" data-name="Grupo 320">
        <g id="Grupo_317" data-name="Grupo 317">
          <path id="Trazado_563" data-name="Trazado 563" d="M2641.2,1103.6a.429.429,0,0,1,.178-.185.44.44,0,0,1,.6.168c.433.771.853,1.563,1.249,2.353a.44.44,0,1,1-.787.4c-.39-.778-.8-1.558-1.23-2.317A.438.438,0,0,1,2641.2,1103.6Z" fill="#78abd4"/>
        </g>
        <g id="Grupo_318" data-name="Grupo 318">
          <path id="Trazado_564" data-name="Trazado 564" d="M2644.388,1110.272a.441.441,0,0,1,.8.035c.592,1.477,1.129,3,1.595,4.522a.44.44,0,1,1-.842.258c-.46-1.5-.988-3-1.571-4.453A.439.439,0,0,1,2644.388,1110.272Zm2.784,9.092a.44.44,0,0,1,.824.1c.338,1.558.614,3.148.819,4.725a.44.44,0,1,1-.873.114c-.2-1.553-.474-3.118-.807-4.652A.437.437,0,0,1,2647.172,1119.364Zm1.23,9.428a.44.44,0,0,1,.833.177c.073,1.592.078,3.2.017,4.8a.441.441,0,0,1-.881-.034c.061-1.565.056-3.153-.016-4.72A.43.43,0,0,1,2648.4,1128.792Zm-.371,9.5a.441.441,0,0,1,.831.253c-.2,1.581-.463,3.172-.793,4.728a.441.441,0,1,1-.862-.182c.325-1.532.587-3.1.78-4.655A.452.452,0,0,1,2648.031,1138.291Z" fill="#78abd4"/>
        </g>
        <g id="Grupo_319" data-name="Grupo 319">
          <path id="Trazado_565" data-name="Trazado 565" d="M2646.062,1147.6a.441.441,0,0,1,.815.326c-.255.846-.534,1.7-.83,2.533a.441.441,0,0,1-.831-.3c.291-.821.566-1.66.817-2.492A.584.584,0,0,1,2646.062,1147.6Z" fill="#78abd4"/>
        </g>
      </g>
    </g>
    <g id="Grupo_324" data-name="Grupo 324">
      <g id="Grupo_322" data-name="Grupo 322">
        <path id="Trazado_566" data-name="Trazado 566" d="M2636.577,1094.121v-10.356l9.576,4.789Zm.79-9.076v7.7l7.122-4.141Z" fill="#78abd4"/>
      </g>
      <g id="Grupo_323" data-name="Grupo 323">
        <path id="Trazado_567" data-name="Trazado 567" d="M2652.823,1097.279h-25.757v-20.732h9.658l1.864,4.54h14.235Zm-24.967-.791h24.176v-14.61h-13.974l-1.864-4.54h-8.338Z" fill="#78abd4"/>
      </g>
    </g>
    <g id="Grupo_331" data-name="Grupo 331">
      <g id="Grupo_325" data-name="Grupo 325">
        <path id="Trazado_568" data-name="Trazado 568" d="M2649.994,1177.016a10.482,10.482,0,1,1,10.482-10.482A10.494,10.494,0,0,1,2649.994,1177.016Zm0-19.851a9.369,9.369,0,1,0,9.369,9.369A9.38,9.38,0,0,0,2649.994,1157.165Z" fill="#78abd4"/>
      </g>
      <g id="Grupo_326" data-name="Grupo 326">
        <path id="Trazado_569" data-name="Trazado 569" d="M2649.994,1168.374a1.84,1.84,0,1,1,1.84-1.84A1.842,1.842,0,0,1,2649.994,1168.374Zm0-2.567a.727.727,0,1,0,.727.727A.728.728,0,0,0,2649.994,1165.807Z" fill="#78abd4"/>
      </g>
      <g id="Grupo_327" data-name="Grupo 327">
        <path id="Trazado_570" data-name="Trazado 570" d="M2649.994,1163.782a2.933,2.933,0,1,1,2.934-2.933A2.937,2.937,0,0,1,2649.994,1163.782Zm0-4.754a1.82,1.82,0,1,0,1.821,1.821A1.823,1.823,0,0,0,2649.994,1159.028Z" fill="#78abd4"/>
      </g>
      <g id="Grupo_328" data-name="Grupo 328">
        <path id="Trazado_571" data-name="Trazado 571" d="M2655.679,1169.467a2.933,2.933,0,1,1,2.934-2.933A2.937,2.937,0,0,1,2655.679,1169.467Zm0-4.753a1.82,1.82,0,1,0,1.821,1.82A1.822,1.822,0,0,0,2655.679,1164.714Z" fill="#78abd4"/>
      </g>
      <g id="Grupo_329" data-name="Grupo 329">
        <path id="Trazado_572" data-name="Trazado 572" d="M2644.309,1169.467a2.933,2.933,0,1,1,2.933-2.933A2.937,2.937,0,0,1,2644.309,1169.467Zm0-4.753a1.82,1.82,0,1,0,1.82,1.82A1.821,1.821,0,0,0,2644.309,1164.714Z" fill="#78abd4"/>
      </g>
      <g id="Grupo_330" data-name="Grupo 330">
        <path id="Trazado_573" data-name="Trazado 573" d="M2649.994,1175.153a2.933,2.933,0,1,1,2.934-2.934A2.937,2.937,0,0,1,2649.994,1175.153Zm0-4.754a1.82,1.82,0,1,0,1.821,1.82A1.822,1.822,0,0,0,2649.994,1170.4Z" fill="#78abd4"/>
      </g>
    </g>
    <g id="Grupo_332" data-name="Grupo 332">
      <path id="Trazado_574" data-name="Trazado 574" d="M2271.848,1088.977c-1.663,10.388-12.137,17.349-12.137,17.349s-7.776-9.883-6.112-20.271,12.137-17.349,12.137-17.349S2273.512,1078.589,2271.848,1088.977Z" fill="#66aecc"/>
      <path id="Trazado_575" data-name="Trazado 575" d="M2278.693,1124.41c-8.222,6.563-20.652,4.662-20.652,4.662s.9-12.543,9.122-19.106,20.653-4.663,20.653-4.663S2286.916,1117.846,2278.693,1124.41Z" fill="#66aecc"/>
      <path id="Trazado_576" data-name="Trazado 576" d="M2279.036,1160.6c-8.222,6.563-20.653,4.662-20.653,4.662s.9-12.543,9.123-19.106,20.652-4.663,20.652-4.663S2287.258,1154.034,2279.036,1160.6Z" fill="#66aecc"/>
      <path id="Trazado_577" data-name="Trazado 577" d="M2234.094,1138.147c-8.233-6.55-9.155-19.091-9.155-19.091s12.428-1.922,20.661,4.627,9.155,19.091,9.155,19.091S2242.328,1144.7,2234.094,1138.147Z" fill="#66aecc"/>
      <path id="Trazado_578" data-name="Trazado 578" d="M2237.11,1181.707c-10.131-2.836-15.853-14.034-15.853-14.034s10.7-6.6,20.836-3.764,15.852,14.035,15.852,14.035S2247.241,1184.543,2237.11,1181.707Z" fill="#66aecc"/>
      <path id="Trazado_579" data-name="Trazado 579" d="M2270.355,1207.344a1.232,1.232,0,0,1-.488-.4c-11.434-15.833-16.339-40.752-14.578-74.062a292.15,292.15,0,0,1,6.055-45.278,1.243,1.243,0,1,1,2.421.565c-.187.8-18.4,80.6,8.117,117.32a1.243,1.243,0,0,1-1.527,1.857Z" fill="#5490a8"/>
    </g>
    <g id="Grupo_333" data-name="Grupo 333">
      <path id="Trazado_580" data-name="Trazado 580" d="M2116.164,1326.722c9.317,4.888,12.576,17.033,12.576,17.033s-11.846,4.221-21.162-.667S2095,1326.055,2095,1326.055,2106.848,1321.834,2116.164,1326.722Z" fill="#66aecc"/>
      <path id="Trazado_581" data-name="Trazado 581" d="M2151.931,1331.527c3.6,9.885-2.164,21.062-2.164,21.062s-11.6-4.851-15.2-14.737,2.163-21.061,2.163-21.061S2148.33,1321.642,2151.931,1331.527Z" fill="#66aecc"/>
      <path id="Trazado_582" data-name="Trazado 582" d="M2150.737,1378.178c-8.832,5.717-21.013,2.593-21.013,2.593s2.138-12.392,10.97-18.108,21.013-2.593,21.013-2.593S2159.569,1372.462,2150.737,1378.178Z" fill="#66aecc"/>
      <path id="Trazado_583" data-name="Trazado 583" d="M2227.882,1365.863a1.231,1.231,0,0,1-.536.335c-18.652,5.791-43.834,2.5-74.847-9.787a292.244,292.244,0,0,1-40.986-20.171,1.243,1.243,0,1,1,1.307-2.115c.7.433,70.536,43.128,113.789,29.7a1.243,1.243,0,0,1,1.273,2.039Z" fill="#5490a8"/>
    </g>
    <g id="Grupo_334" data-name="Grupo 334">
      <path id="Trazado_584" data-name="Trazado 584" d="M2479.231,1114.818v269.826h97.781V1114.818Zm9.825,259.026a1.277,1.277,0,0,1-1.277,1.277H2482.6a1.277,1.277,0,0,1-1.276-1.277v-9.979a1.276,1.276,0,0,1,1.276-1.276h5.183a1.277,1.277,0,0,1,1.277,1.276Zm0-20.165a1.277,1.277,0,0,1-1.277,1.277H2482.6a1.277,1.277,0,0,1-1.276-1.277V1343.7a1.276,1.276,0,0,1,1.276-1.276h5.183a1.277,1.277,0,0,1,1.277,1.276Zm0-20.164a1.277,1.277,0,0,1-1.277,1.276H2482.6a1.276,1.276,0,0,1-1.276-1.276v-9.98a1.276,1.276,0,0,1,1.276-1.276h5.183a1.276,1.276,0,0,1,1.277,1.276Zm0-20.165a1.276,1.276,0,0,1-1.277,1.276H2482.6a1.276,1.276,0,0,1-1.276-1.276v-9.979a1.277,1.277,0,0,1,1.276-1.277h5.183a1.277,1.277,0,0,1,1.277,1.277Zm0-19.374a1.276,1.276,0,0,1-1.277,1.276H2482.6a1.276,1.276,0,0,1-1.276-1.276V1284a1.277,1.277,0,0,1,1.276-1.277h5.183a1.277,1.277,0,0,1,1.277,1.277Zm0-20.165a1.277,1.277,0,0,1-1.277,1.276H2482.6a1.276,1.276,0,0,1-1.276-1.276v-9.979a1.276,1.276,0,0,1,1.276-1.277h5.183a1.277,1.277,0,0,1,1.277,1.277Zm0-20.165a1.277,1.277,0,0,1-1.277,1.277H2482.6a1.277,1.277,0,0,1-1.276-1.277v-9.979a1.276,1.276,0,0,1,1.276-1.276h5.183a1.277,1.277,0,0,1,1.277,1.276Zm0-21.351a1.277,1.277,0,0,1-1.277,1.277H2482.6a1.277,1.277,0,0,1-1.276-1.277v-9.979a1.276,1.276,0,0,1,1.276-1.276h5.183a1.276,1.276,0,0,1,1.277,1.276Zm0-20.164a1.277,1.277,0,0,1-1.277,1.276H2482.6a1.276,1.276,0,0,1-1.276-1.276v-9.98a1.276,1.276,0,0,1,1.276-1.276h5.183a1.277,1.277,0,0,1,1.277,1.276Zm0-20.165a1.276,1.276,0,0,1-1.277,1.276H2482.6a1.276,1.276,0,0,1-1.276-1.276v-9.98a1.276,1.276,0,0,1,1.276-1.276h5.183a1.277,1.277,0,0,1,1.277,1.276Zm0-19.374a1.277,1.277,0,0,1-1.277,1.276H2482.6a1.276,1.276,0,0,1-1.276-1.276v-9.98a1.276,1.276,0,0,1,1.276-1.276h5.183a1.276,1.276,0,0,1,1.277,1.276Zm0-20.165a1.277,1.277,0,0,1-1.277,1.276H2482.6a1.276,1.276,0,0,1-1.276-1.276v-9.979a1.277,1.277,0,0,1,1.276-1.277h5.183a1.277,1.277,0,0,1,1.277,1.277Zm0-20.165a1.276,1.276,0,0,1-1.277,1.276H2482.6a1.276,1.276,0,0,1-1.276-1.276v-9.979a1.277,1.277,0,0,1,1.276-1.277h5.183a1.277,1.277,0,0,1,1.277,1.277Zm85.8,241.582a1.277,1.277,0,0,1-1.277,1.277H2568.4a1.277,1.277,0,0,1-1.276-1.277v-9.979a1.276,1.276,0,0,1,1.276-1.276h5.183a1.277,1.277,0,0,1,1.277,1.276Zm0-20.165a1.277,1.277,0,0,1-1.277,1.277H2568.4a1.277,1.277,0,0,1-1.276-1.277V1343.7a1.276,1.276,0,0,1,1.276-1.276h5.183a1.277,1.277,0,0,1,1.277,1.276Zm0-20.164a1.277,1.277,0,0,1-1.277,1.276H2568.4a1.276,1.276,0,0,1-1.276-1.276v-9.98a1.276,1.276,0,0,1,1.276-1.276h5.183a1.276,1.276,0,0,1,1.277,1.276Zm0-20.165a1.276,1.276,0,0,1-1.277,1.276H2568.4a1.276,1.276,0,0,1-1.276-1.276v-9.979a1.277,1.277,0,0,1,1.276-1.277h5.183a1.277,1.277,0,0,1,1.277,1.277Zm0-19.374a1.276,1.276,0,0,1-1.277,1.276H2568.4a1.276,1.276,0,0,1-1.276-1.276V1284a1.277,1.277,0,0,1,1.276-1.277h5.183a1.277,1.277,0,0,1,1.277,1.277Zm0-20.165a1.277,1.277,0,0,1-1.277,1.276H2568.4a1.276,1.276,0,0,1-1.276-1.276v-9.979a1.277,1.277,0,0,1,1.276-1.277h5.183a1.277,1.277,0,0,1,1.277,1.277Zm0-20.165a1.277,1.277,0,0,1-1.277,1.277H2568.4a1.277,1.277,0,0,1-1.276-1.277v-9.979a1.276,1.276,0,0,1,1.276-1.276h5.183a1.277,1.277,0,0,1,1.277,1.276Zm0-21.351a1.277,1.277,0,0,1-1.277,1.277H2568.4a1.277,1.277,0,0,1-1.276-1.277v-9.979a1.276,1.276,0,0,1,1.276-1.276h5.183a1.276,1.276,0,0,1,1.277,1.276Zm0-20.164a1.277,1.277,0,0,1-1.277,1.276H2568.4a1.277,1.277,0,0,1-1.276-1.276v-9.98a1.276,1.276,0,0,1,1.276-1.276h5.183a1.277,1.277,0,0,1,1.277,1.276Zm0-20.165a1.276,1.276,0,0,1-1.277,1.276H2568.4a1.276,1.276,0,0,1-1.276-1.276v-9.98a1.277,1.277,0,0,1,1.276-1.276h5.183a1.277,1.277,0,0,1,1.277,1.276Zm0-19.374a1.277,1.277,0,0,1-1.277,1.276H2568.4a1.276,1.276,0,0,1-1.276-1.276v-9.98a1.276,1.276,0,0,1,1.276-1.276h5.183a1.276,1.276,0,0,1,1.277,1.276Zm0-20.165a1.277,1.277,0,0,1-1.277,1.276H2568.4a1.276,1.276,0,0,1-1.276-1.276v-9.979a1.277,1.277,0,0,1,1.276-1.277h5.183a1.277,1.277,0,0,1,1.277,1.277Zm0-20.165a1.276,1.276,0,0,1-1.277,1.276H2568.4a1.276,1.276,0,0,1-1.276-1.276v-9.979a1.277,1.277,0,0,1,1.276-1.277h5.183a1.277,1.277,0,0,1,1.277,1.277Z" fill="#4d5a94"/>
      <rect id="Rectángulo_494" data-name="Rectángulo 494" width="73.026" height="262.4" transform="translate(2491.608 1118.531)" fill="#587ac1"/>
      <rect id="Rectángulo_495" data-name="Rectángulo 495" width="73.026" height="262.4" transform="translate(2491.608 1118.531)" fill="#7277ad"/>
      <rect id="Rectángulo_496" data-name="Rectángulo 496" width="75.708" height="7.426" transform="translate(2490.268 1285.557)" fill="#4d5a94"/>
      <rect id="Rectángulo_497" data-name="Rectángulo 497" width="75.708" height="7.426" transform="translate(2490.268 1198.176)" fill="#4d5a94"/>
    </g>
    <g id="Grupo_335" data-name="Grupo 335">
      <path id="Trazado_585" data-name="Trazado 585" d="M2604.024,1240.8c-1.468,7.571,3.992,15,3.992,15s7.841-4.848,9.309-12.419-3.993-15-3.993-15S2605.492,1233.229,2604.024,1240.8Z" fill="#66aecc"/>
      <path id="Trazado_586" data-name="Trazado 586" d="M2611,1267.5c-6.72,3.784-8.844,12.755-8.844,12.755s8.772,2.834,15.492-.95,8.843-12.755,8.843-12.755S2617.716,1263.719,2611,1267.5Z" fill="#66aecc"/>
      <path id="Trazado_587" data-name="Trazado 587" d="M2597.979,1311.2c-7.689.592-13.4,7.826-13.4,7.826s6.754,6.274,14.444,5.682,13.4-7.827,13.4-7.827S2605.669,1310.612,2597.979,1311.2Z" fill="#66aecc"/>
      <path id="Trazado_588" data-name="Trazado 588" d="M2577.755,1346.338c-7.514-1.737-15.132,3.454-15.132,3.454s4.565,8.009,12.079,9.746,15.132-3.453,15.132-3.453S2585.269,1348.076,2577.755,1346.338Z" fill="#66aecc"/>
      <path id="Trazado_589" data-name="Trazado 589" d="M2555.54,1367.5c-7.514-1.738-15.132,3.453-15.132,3.453s4.565,8.009,12.079,9.747,15.132-3.454,15.132-3.454S2563.054,1369.24,2555.54,1367.5Z" fill="#66aecc"/>
      <path id="Trazado_590" data-name="Trazado 590" d="M2591.717,1283.316c-3.756-6.736-12.717-8.9-12.717-8.9s-2.872,8.76.884,15.5,12.718,8.9,12.718,8.9S2595.473,1290.052,2591.717,1283.316Z" fill="#66aecc"/>
      <path id="Trazado_591" data-name="Trazado 591" d="M2573.255,1315.738c-3.756-6.736-12.718-8.9-12.718-8.9s-2.871,8.759.885,15.5,12.717,8.9,12.717,8.9S2577.011,1322.474,2573.255,1315.738Z" fill="#66aecc"/>
      <path id="Trazado_592" data-name="Trazado 592" d="M2517.345,1384.3a1.151,1.151,0,0,1-.459-2.207c35.056-15.226,57.517-48.014,70.188-72.839,14.976-29.343,20.7-55.531,20.983-61.254a1.151,1.151,0,0,1,2.3.115c-.386,7.709-7.208,34.707-21.233,62.185-12.841,25.161-35.638,58.406-71.32,73.9A1.143,1.143,0,0,1,2517.345,1384.3Z" fill="#5490a8"/>
    </g>
    <g id="Grupo_336" data-name="Grupo 336">
      <path id="Trazado_593" data-name="Trazado 593" d="M2179.331,1083.633c1.338,6.9-3.64,13.673-3.64,13.673s-7.148-4.42-8.486-11.322,3.64-13.674,3.64-13.674S2177.993,1076.73,2179.331,1083.633Z" fill="#66aecc"/>
      <path id="Trazado_594" data-name="Trazado 594" d="M2172.975,1107.978c6.127,3.45,8.063,11.629,8.063,11.629s-8,2.584-14.124-.866-8.062-11.628-8.062-11.628S2166.849,1104.528,2172.975,1107.978Z" fill="#66aecc"/>
      <path id="Trazado_595" data-name="Trazado 595" d="M2184.842,1147.82c7.01.54,12.219,7.135,12.219,7.135s-6.157,5.72-13.168,5.18-12.219-7.135-12.219-7.135S2177.832,1147.28,2184.842,1147.82Z" fill="#66aecc"/>
      <path id="Trazado_596" data-name="Trazado 596" d="M2203.28,1179.851c6.85-1.585,13.795,3.148,13.795,3.148s-4.161,7.3-11.012,8.886-13.795-3.149-13.795-3.149S2196.43,1181.435,2203.28,1179.851Z" fill="#66aecc"/>
      <path id="Trazado_597" data-name="Trazado 597" d="M2223.533,1199.146c6.85-1.585,13.795,3.148,13.795,3.148s-4.161,7.3-11.012,8.886-13.795-3.149-13.795-3.149S2216.683,1200.73,2223.533,1199.146Z" fill="#66aecc"/>
      <path id="Trazado_598" data-name="Trazado 598" d="M2190.551,1122.394c3.424-6.141,11.594-8.111,11.594-8.111s2.618,7.986-.806,14.127-11.594,8.111-11.594,8.111S2187.127,1128.535,2190.551,1122.394Z" fill="#66aecc"/>
      <path id="Trazado_599" data-name="Trazado 599" d="M2207.383,1151.953c3.424-6.141,11.594-8.112,11.594-8.112s2.618,7.986-.806,14.127-11.594,8.112-11.594,8.112S2203.959,1158.094,2207.383,1151.953Z" fill="#66aecc"/>
      <path id="Trazado_600" data-name="Trazado 600" d="M2258.355,1214.456a1.05,1.05,0,0,0,.418-2.012c-31.959-13.882-52.437-43.774-63.988-66.406-13.654-26.752-18.87-50.627-19.131-55.844a1.049,1.049,0,1,0-2.095.1c.351,7.028,6.571,31.642,19.357,56.694,11.707,22.938,32.491,53.247,65.021,67.376A1.05,1.05,0,0,0,2258.355,1214.456Z" fill="#5490a8"/>
    </g>
    <g id="Grupo_337" data-name="Grupo 337">
      <path id="Trazado_601" data-name="Trazado 601" d="M2535.609,1285.068c-1.136,7.628,4.644,14.81,4.644,14.81s7.621-5.187,8.757-12.815-4.645-14.81-4.645-14.81S2536.744,1277.44,2535.609,1285.068Z" fill="#66aecc"/>
      <path id="Trazado_602" data-name="Trazado 602" d="M2522.987,1308.317c4.294,6.406,13.4,7.828,13.4,7.828s2.146-8.966-2.149-15.372-13.4-7.827-13.4-7.827S2518.692,1301.911,2522.987,1308.317Z" fill="#66aecc"/>
      <path id="Trazado_603" data-name="Trazado 603" d="M2514.742,1333.533c4.294,6.406,13.4,7.827,13.4,7.827s2.146-8.965-2.148-15.371-13.4-7.827-13.4-7.827S2510.447,1327.127,2514.742,1333.533Z" fill="#66aecc"/>
      <path id="Trazado_604" data-name="Trazado 604" d="M2551.118,1327.784c7.2-2.756,10.621-11.317,10.621-11.317s-8.26-4.093-15.463-1.337-10.621,11.317-10.621,11.317S2543.915,1330.54,2551.118,1327.784Z" fill="#66aecc"/>
      <path id="Trazado_605" data-name="Trazado 605" d="M2539.374,1357.561c7.708.259,14.184-6.3,14.184-6.3s-6.021-6.98-13.729-7.239-14.184,6.3-14.184,6.3S2531.666,1357.3,2539.374,1357.561Z" fill="#66aecc"/>
      <path id="Trazado_606" data-name="Trazado 606" d="M2510.468,1368.124a.913.913,0,0,0,.43-.173c11.494-8.537,20.434-24.867,26.572-48.536a214.009,214.009,0,0,0,5.784-32.984.911.911,0,1,0-1.816-.141c-.047.6-4.974,60.4-31.627,80.2a.912.912,0,0,0,.657,1.636Z" fill="#5490a8"/>
    </g>
    <g id="Grupo_352" data-name="Grupo 352">
      <g id="Grupo_351" data-name="Grupo 351">
        <rect id="Rectángulo_498" data-name="Rectángulo 498" width="224.206" height="170.088" transform="translate(2514.714 1384.478) rotate(180)" fill="#6398bf"/>
        <rect id="Rectángulo_499" data-name="Rectángulo 499" width="224.206" height="47.161" transform="translate(2514.714 1261.551) rotate(180)" fill="#e5f8f8"/>
        <g id="Grupo_343" data-name="Grupo 343">
          <g id="Grupo_342" data-name="Grupo 342">
            <g id="Grupo_338" data-name="Grupo 338">
              <path id="Trazado_607" data-name="Trazado 607" d="M2501.976,1214.391l12.738,12.738v34.423h-.019l-47.161-47.161Z" fill="#78b8e8"/>
            </g>
            <g id="Grupo_339" data-name="Grupo 339">
              <path id="Trazado_608" data-name="Trazado 608" d="M2406.394,1214.391h34.44L2488,1261.551h-34.441Z" fill="#78b8e8"/>
            </g>
            <g id="Grupo_340" data-name="Grupo 340">
              <path id="Trazado_609" data-name="Trazado 609" d="M2345.611,1214.439l34.44-.041,47.217,47.105-34.441.041Z" fill="#78b8e8"/>
            </g>
            <g id="Grupo_341" data-name="Grupo 341">
              <path id="Trazado_610" data-name="Trazado 610" d="M2290.508,1220.014v-5.623h28.817l47.162,47.161h-34.441Z" fill="#78b8e8"/>
            </g>
          </g>
        </g>
        <g id="Grupo_350" data-name="Grupo 350">
          <rect id="Rectángulo_500" data-name="Rectángulo 500" width="224.206" height="47.161" transform="translate(2494.963 1090.719) rotate(149.598)" fill="#e5f8f8"/>
          <g id="Grupo_349" data-name="Grupo 349">
            <g id="Grupo_348" data-name="Grupo 348">
              <g id="Grupo_344" data-name="Grupo 344">
                <path id="Trazado_611" data-name="Trazado 611" d="M2460.11,1056.489l17.433,4.54,17.42,29.689-.016.01-64.542-16.809Z" fill="#78b8e8"/>
              </g>
              <g id="Grupo_345" data-name="Grupo 345">
                <path id="Trazado_612" data-name="Trazado 612" d="M2377.671,1104.86l29.7-17.429,64.543,16.809-29.7,17.429Z" fill="#78b8e8"/>
              </g>
              <g id="Grupo_346" data-name="Grupo 346">
                <path id="Trazado_613" data-name="Trazado 613" d="M2325.271,1135.606l29.7-17.429,64.543,16.809-29.705,17.429Z" fill="#78b8e8"/>
              </g>
              <g id="Grupo_347" data-name="Grupo 347">
                <path id="Trazado_614" data-name="Trazado 614" d="M2280.566,1168.357l-2.846-4.85,24.854-14.583,64.543,16.809-29.7,17.429Z" fill="#78b8e8"/>
              </g>
            </g>
          </g>
        </g>
        <path id="Rectángulo_501" data-name="Rectángulo 501" d="M0,0H36.723a0,0,0,0,1,0,0V22.614A18.362,18.362,0,0,1,18.362,40.976h0A18.362,18.362,0,0,1,0,22.614V0A0,0,0,0,1,0,0Z" transform="translate(2327.848 1214.296) rotate(180)" fill="#6398bf"/>
        <circle id="Elipse_26" data-name="Elipse 26" cx="13.916" cy="13.916" r="13.916" transform="translate(2295.376 1180.375)" fill="#e5f8f8"/>
      </g>
      <path id="Trazado_615" data-name="Trazado 615" d="M2508.782,1310.38h-54.925v-29.706H2452v29.706h-99.947v-29.706H2350.2v29.706h-51.676v1.7H2350.2v38.989h1.856v-38.989H2452v38.989h1.857v-38.989h54.925Z" fill="#82b4d9"/>
    </g>
    <g id="Grupo_356" data-name="Grupo 356">
      <g id="Grupo_353" data-name="Grupo 353">
        <path id="Trazado_616" data-name="Trazado 616" d="M2524.318,1278.694l1.762,3.787c-3.033-.106-6.373,2.995-7.441,4.33a.934.934,0,0,1-1.575-.2l-.546-1.173a2.216,2.216,0,0,1,.26-2.292C2517.816,1281.81,2521.188,1278.585,2524.318,1278.694Z" fill="#f05e44"/>
        <path id="Trazado_617" data-name="Trazado 617" d="M2520.9,1273.8l12.054,23.455,13.77-12.2-21.829-14.8Z" fill="#f05e44"/>
        <path id="Rectángulo_502" data-name="Rectángulo 502" d="M1,0H7.772a1,1,0,0,1,1,1V1a1,1,0,0,1-1,1H1A1,1,0,0,1,0,1V1A1,1,0,0,1,1,0Z" transform="translate(2540.84 1285.581) rotate(-142.123)" fill="#363636"/>
        <rect id="Rectángulo_503" data-name="Rectángulo 503" width="2.001" height="2.001" rx="1.001" transform="matrix(-0.789, -0.614, 0.614, -0.789, 2533.116, 1279.624)" fill="#363636"/>
        <path id="Rectángulo_504" data-name="Rectángulo 504" d="M0,0H1.629A2.651,2.651,0,0,1,4.28,2.651v0A2.651,2.651,0,0,1,1.629,5.3H0a0,0,0,0,1,0,0V0A0,0,0,0,1,0,0Z" transform="translate(2520.937 1273.811) rotate(-131.535)" fill="#f05e44"/>
        <path id="Trazado_618" data-name="Trazado 618" d="M2539.757,1293.619l-1.552-1.014,3.275-2.9.819,1.663Z" fill="#ff9e8c"/>
      </g>
      <g id="Grupo_354" data-name="Grupo 354">
        <path id="Trazado_619" data-name="Trazado 619" d="M2494,1372.551s-1.5,6.312-3.148,6.312-10.477,2.294-11.854,5.781h23.479c.826-3.487-2.386-7.158-2.57-9.452S2494,1372.551,2494,1372.551Z" fill="#ff8762"/>
        <path id="Trazado_620" data-name="Trazado 620" d="M2501.37,1379.034c-2.959,4.858-7.4,3.136-8.64,2.008-.865-.788-1-1.627-1.625-2.211a1.045,1.045,0,0,1-.257.032c-1.652,0-10.477,2.294-11.854,5.781h23.479C2502.923,1382.744,2502.174,1380.791,2501.37,1379.034Z" fill="#2b1710"/>
        <path id="Trazado_621" data-name="Trazado 621" d="M2487.785,1381.757a.176.176,0,0,1-.17-.13c0-.019-.522-1.9-1.648-1.63a.176.176,0,0,1-.081-.342c1.458-.345,2.045,1.79,2.069,1.881a.176.176,0,0,1-.124.215A.187.187,0,0,1,2487.785,1381.757Z" fill="#45251a"/>
        <path id="Trazado_622" data-name="Trazado 622" d="M2490.125,1380.622a.176.176,0,0,1-.169-.131c-.006-.019-.522-1.9-1.648-1.629a.176.176,0,1,1-.081-.343c1.457-.345,2.044,1.79,2.068,1.881a.176.176,0,0,1-.124.216A.18.18,0,0,1,2490.125,1380.622Z" fill="#45251a"/>
      </g>
      <path id="Trazado_623" data-name="Trazado 623" d="M2495.908,1275.006s-5.6,46.529-5.6,50.8.689,49.833.689,49.833c3.028,3.854,11.563,1.239,11.563,1.239s3.166-39.509,3.579-42.675,4.13-21.613,4.268-22.714,1.927-23.678,1.927-23.678l-3.3-14.179Z" fill="#1460c6"/>
      <g id="Grupo_355" data-name="Grupo 355">
        <path id="Trazado_624" data-name="Trazado 624" d="M2517.039,1372.551s-1.5,6.312-3.148,6.312-10.477,2.294-11.854,5.781h23.479c.826-3.487-2.386-7.158-2.57-9.452S2517.039,1372.551,2517.039,1372.551Z" fill="#ff8762"/>
        <path id="Trazado_625" data-name="Trazado 625" d="M2524.413,1379.034c-2.959,4.858-7.4,3.136-8.64,2.008-.865-.788-1-1.627-1.625-2.211a1.043,1.043,0,0,1-.257.032c-1.652,0-10.477,2.294-11.854,5.781h23.479C2525.966,1382.744,2525.217,1380.791,2524.413,1379.034Z" fill="#2b1710"/>
        <path id="Trazado_626" data-name="Trazado 626" d="M2510.828,1381.757a.176.176,0,0,1-.17-.13c0-.019-.522-1.9-1.648-1.63a.176.176,0,0,1-.081-.342c1.457-.345,2.045,1.79,2.069,1.881a.176.176,0,0,1-.124.215A.187.187,0,0,1,2510.828,1381.757Z" fill="#45251a"/>
        <path id="Trazado_627" data-name="Trazado 627" d="M2513.168,1380.622a.178.178,0,0,1-.17-.131c-.005-.019-.522-1.9-1.648-1.629a.176.176,0,0,1-.081-.343c1.458-.345,2.045,1.79,2.069,1.881a.176.176,0,0,1-.124.216A.181.181,0,0,1,2513.168,1380.622Z" fill="#45251a"/>
      </g>
      <path id="Trazado_628" data-name="Trazado 628" d="M2503.892,1276.291s-.826,14.408-.459,15.051,2.753,1.376,2.753,1.376,3.327,39.417,3.327,43.96,2.478,38.82,2.478,38.82a19.414,19.414,0,0,0,13.835,0s-.413-44.189-1.033-48.319c2.891-30.354-.038-46.361-1.828-50.1S2503.892,1276.291,2503.892,1276.291Z" fill="#4385f3"/>
      <path id="Trazado_629" data-name="Trazado 629" d="M2495.542,1270.521a35.153,35.153,0,0,1-.086,4.513c6.388,4.6,25.295,3.492,27.509,1.874a23.514,23.514,0,0,1,.192-3.215Z" fill="#2b1710"/>
      <path id="Trazado_630" data-name="Trazado 630" d="M2552.092,1261.493c-1.149-2.236-18.715-25.039-25.166-29.447s-9.326-6-9.326-6-1.852-2.81-4.663-2.81-9.006.7-9.006.7c-.192,0-3.066,2.427-2.939,2.875-7.218,3.9-20.631,20.759-21.142,20.312s-12.456-17.481-12.456-17.481l-5.2,2.726s4.556,13.861,7.175,19.673,6.388,9.262,8.3,9.773,16.671-7.793,17.055-7.473-2.172,16.16,1.341,18.2c10.667,4.535,25.933,2.875,27.083,1.15,2.236,1.789,22.676-.766,26.061-4.727S2553.242,1263.729,2552.092,1261.493Zm-28.36,6.728c-.6-4,.6-15.074.6-15.074l10.39,8.261C2531.908,1263.707,2523.732,1268.221,2523.732,1268.221Z" fill="#fff"/>
      <path id="Trazado_631" data-name="Trazado 631" d="M2500.673,1207.071c-.958-1.405-1.022-3.832.575-4.216-.064-2.874,3.385-5.11,6.323-3.96a24.736,24.736,0,0,1,7.6,5.174c1.022,1.214-.9,11.881-4.025,13.861S2500.673,1207.071,2500.673,1207.071Z" fill="#2b1710"/>
      <path id="Trazado_632" data-name="Trazado 632" d="M2503.994,1201c.959,1.916,3.833,3.513,4.983,3.13s1.469,1.661,1.213,3.449-.638,4.024-.064,4.535,1.342.7,1.789-.191,2.491-.831,2.619,1.149-1.086,3.45-2.491,3.45c-1.533,4.343,2.81,7.856,2.172,8.176s-3.769,5.812-5.047,5.365-2.746,3.13-3,2.427a5.991,5.991,0,0,0-1.341-2.746,5.315,5.315,0,0,1-1.342-3.7,28.919,28.919,0,0,0-.574-4.024,9.724,9.724,0,0,1-2.3-1.725c-.575-.766-1.277-8.3-1.022-9.581s.575-2.3.767-3.449S2502.781,1200.684,2503.994,1201Z" fill="#ff8762"/>
      <path id="Trazado_633" data-name="Trazado 633" d="M2506.943,1210.485c-.119.612-.478,1.057-.8.994s-.488-.61-.369-1.222.477-1.056.8-.993S2507.062,1209.874,2506.943,1210.485Z" fill="#2b1710"/>
      <path id="Trazado_634" data-name="Trazado 634" d="M2502.536,1209.527c-.119.612-.478,1.057-.8.994s-.489-.61-.37-1.222.478-1.056.8-.993S2502.655,1208.915,2502.536,1209.527Z" fill="#2b1710"/>
      <path id="Trazado_635" data-name="Trazado 635" d="M2501.716,1213.54a.067.067,0,0,1-.027-.005,3.363,3.363,0,0,1-1.376-.995.558.558,0,0,1-.129-.44.566.566,0,0,1,.244-.391,10.549,10.549,0,0,0,2.576-2.072,4.776,4.776,0,0,0,.074-1.813c-.02-.277-.038-.538-.038-.753a.081.081,0,1,1,.163,0c0,.209.018.468.038.741a4.856,4.856,0,0,1-.087,1.889,11.452,11.452,0,0,1-2.635,2.144.4.4,0,0,0-.173.278.393.393,0,0,0,.091.311,3.226,3.226,0,0,0,1.307.948.082.082,0,0,1,.049.1A.08.08,0,0,1,2501.716,1213.54Z" fill="#2b1710"/>
      <path id="Trazado_636" data-name="Trazado 636" d="M2502.739,1219.58a1.992,1.992,0,0,1-1.42-.569.081.081,0,0,1,0-.116.082.082,0,0,1,.115,0,2.181,2.181,0,0,0,2.459.243.082.082,0,0,1,.079.143A2.824,2.824,0,0,1,2502.739,1219.58Z" fill="#e0b3a8"/>
      <path id="Trazado_637" data-name="Trazado 637" d="M2505.251,1221.844a.081.081,0,1,1,0-.163c2.288,0,4.653-3.881,4.993-4.595a.082.082,0,0,1,.148.07C2510.045,1217.884,2507.623,1221.844,2505.251,1221.844Z" fill="#e0b3a8"/>
      <path id="Trazado_638" data-name="Trazado 638" d="M2511.425,1215.542a.082.082,0,0,1,0-.164,1.053,1.053,0,0,0,1.035-1.041.719.719,0,0,0-.782-.754.082.082,0,0,1-.071-.117c.022-.045.539-1.11,1.334-1.312a1.114,1.114,0,0,1,.959.217.08.08,0,0,1,.019.113.082.082,0,0,1-.114.019.958.958,0,0,0-.823-.191,2.311,2.311,0,0,0-1.171,1.117.866.866,0,0,1,.812.91A1.217,1.217,0,0,1,2511.425,1215.542Z" fill="#e0b3a8"/>
      <path id="Trazado_639" data-name="Trazado 639" d="M2505.112,1207.87a13.845,13.845,0,0,1,4.6,1.852C2507.859,1206.464,2505.943,1206.4,2505.112,1207.87Z" fill="#2b1710"/>
      <path id="Trazado_640" data-name="Trazado 640" d="M2500.992,1206.337a3.06,3.06,0,0,1,2.012.415C2502.749,1205.059,2501.248,1205.985,2500.992,1206.337Z" fill="#2b1710"/>
      <path id="Trazado_641" data-name="Trazado 641" d="M2500.8,1214.576a13.88,13.88,0,0,0,5.653.575c-.1.543-1.821,3.833-4.823,3.13A11.482,11.482,0,0,1,2500.8,1214.576Z" fill="#fff"/>
      <path id="Trazado_642" data-name="Trazado 642" d="M2462.2,1232.366c.34-.3,5.2-2.726,5.2-2.726s-3.662-9.879-4.088-10.22-10.22-.894-10.731-.6.17,1.618.979,1.874,3.577.809,3.535.937-.085,2.257-.085,3.832,1.405,3.024,2.767,4A10.36,10.36,0,0,1,2462.2,1232.366Z" fill="#ff8762"/>
      <path id="Trazado_643" data-name="Trazado 643" d="M2460.2,1228.572a.081.081,0,0,1-.032-.156c.016-.007,1.555-.681,1.749-1.694a1.487,1.487,0,0,0-.539-1.325.081.081,0,0,1,.006-.121,2.129,2.129,0,0,0,.741-1.154.787.787,0,0,0-.2-.6.082.082,0,0,1-.015-.082.083.083,0,0,1,.065-.052c.172-.026.378-.094.378-.275,0-.463-1.151-1.3-3.231-1.608a.081.081,0,1,1,.024-.161c2.2.323,3.37,1.235,3.37,1.769,0,.1-.041.316-.386.41a.929.929,0,0,1,.156.618,2.136,2.136,0,0,1-.733,1.207,1.59,1.59,0,0,1,.522,1.408c-.211,1.1-1.778,1.784-1.844,1.813A.1.1,0,0,1,2460.2,1228.572Z" fill="#e0b3a8"/>
      <path id="Trazado_644" data-name="Trazado 644" d="M2500.838,1234.838a.123.123,0,0,1-.079-.028c-.376-.309.87-5.647,1.261-7.275a.082.082,0,1,1,.159.038c-.763,3.179-1.473,6.688-1.325,7.09a9.87,9.87,0,0,0,1.273-1.686c1.063-1.57,1.735-2.511,2.093-2.346.242.111.373.468.525.881.23.627.517,1.409,1.29,1.583a.082.082,0,1,1-.036.159c-.86-.194-1.164-1.021-1.408-1.686-.139-.379-.259-.706-.439-.789-.26-.12-1.28,1.389-1.89,2.29a7.285,7.285,0,0,1-1.363,1.755A.136.136,0,0,1,2500.838,1234.838Zm.028-.152h0Z" fill="#a3a3a3"/>
      <path id="Trazado_645" data-name="Trazado 645" d="M2510.787,1235.556l-.019,0a.082.082,0,0,1-.062-.065c-.006-.036-.692-3.644-2.523-3.766a.082.082,0,1,1,.011-.163c1.733.116,2.47,2.962,2.636,3.721.759-1.012,5.234-7.024,5.54-8.595a.082.082,0,1,1,.16.032c-.34,1.744-5.461,8.518-5.678,8.806A.084.084,0,0,1,2510.787,1235.556Z" fill="#a3a3a3"/>
      <path id="Trazado_646" data-name="Trazado 646" d="M2503.036,1272.689a.082.082,0,0,1-.081-.074c-.018-.179-1.753-18.045,1.407-30.688a.082.082,0,0,1,.159.04c-3.154,12.615-1.421,30.453-1.4,30.632a.082.082,0,0,1-.073.089Z" fill="#a3a3a3"/>
      <path id="Trazado_647" data-name="Trazado 647" d="M2493.838,1252.5a.082.082,0,0,1-.081-.073c-.009-.083-.9-8.349-.9-11.889a.082.082,0,1,1,.164,0c0,3.531.885,11.789.893,11.872a.081.081,0,0,1-.072.09Z" fill="#a3a3a3"/>
      <path id="Trazado_648" data-name="Trazado 648" d="M2479.9,1252.2a.264.264,0,0,1-.124-.032c-.414-.22-.385-1.52.319-3.1.284-.637.212-.718.209-.721-.113-.071-.818.483-1.333.888a13.777,13.777,0,0,1-2.343,1.6c-.393.183-.643.226-.766.132a.217.217,0,0,1-.072-.228c.1-.58,1.835-2.227,3.844-2.866a.081.081,0,1,1,.05.155c-1.991.634-3.647,2.249-3.733,2.739,0,.025-.006.058.01.07s.118.073.6-.15a13.636,13.636,0,0,0,2.312-1.581c.9-.707,1.341-1.04,1.534-.889.131.1.085.367-.159.916-.733,1.648-.645,2.761-.392,2.9.09.048.234-.063.376-.288a3.944,3.944,0,0,0,.626-1.874.081.081,0,0,1,.081-.081h0a.081.081,0,0,1,.081.082,4.021,4.021,0,0,1-.651,1.959C2480.178,1252.128,2480.016,1252.2,2479.9,1252.2Z" fill="#a3a3a3"/>
      <path id="Trazado_649" data-name="Trazado 649" d="M2522.2,1245.095a.082.082,0,0,1-.081-.072c-.009-.075-.839-7.5,4.509-10.81a.081.081,0,1,1,.086.138c-5.258,3.256-4.442,10.579-4.433,10.652a.082.082,0,0,1-.071.091Z" fill="#a3a3a3"/>
      <path id="Trazado_650" data-name="Trazado 650" d="M2536.268,1263.382a.082.082,0,0,1-.107-.012,5.725,5.725,0,0,1-.9-1.276.27.27,0,0,1,.019-.285c.155-.187.613-.114,1.346.022.129.024.259.048.388.07.253.043.362,0,.374-.02.005-.1-.549-.493-2.365-.613a.082.082,0,0,1,.011-.163c1.555.1,2.375.425,2.5.7a.167.167,0,0,1-.017.177c-.075.1-.263.127-.529.081-.13-.022-.261-.046-.391-.07-.484-.09-1.086-.2-1.19-.079-.023.027-.009.081.007.121a5.707,5.707,0,0,0,.87,1.226.082.082,0,0,1-.005.115Z" fill="#a3a3a3"/>
      <path id="Trazado_651" data-name="Trazado 651" d="M2504.761,1234.729a.384.384,0,1,1-.383-.383A.383.383,0,0,1,2504.761,1234.729Z" fill="#a3a3a3"/>
      <path id="Trazado_652" data-name="Trazado 652" d="M2502.142,1248.846a.383.383,0,1,1-.383-.384A.383.383,0,0,1,2502.142,1248.846Z" fill="#a3a3a3"/>
      <path id="Trazado_653" data-name="Trazado 653" d="M2501.376,1262.068a.384.384,0,1,1-.384-.384A.384.384,0,0,1,2501.376,1262.068Z" fill="#a3a3a3"/>
      <path id="Trazado_654" data-name="Trazado 654" d="M2523.136,1272.817a.082.082,0,0,1-.082-.082,23.03,23.03,0,0,1,.343-3.935.081.081,0,0,1,.159.035,22.845,22.845,0,0,0-.339,3.9A.082.082,0,0,1,2523.136,1272.817Z" fill="#a3a3a3"/>
    </g>
    <circle id="Elipse_27" data-name="Elipse 27" cx="96.079" cy="96.079" r="96.079" transform="translate(2152.778 1192.176)" fill="#5b5e8a"/>
    <circle id="Elipse_28" data-name="Elipse 28" cx="55.698" cy="55.698" r="55.698" transform="translate(2193.159 1232.557)" fill="#e2f6f8"/>
    <path id="Trazado_655" data-name="Trazado 655" d="M2400.171,1356.537c-15.782-17.637-44.559-13.924-114.646,11.14v8.3c70.087-25.064,98.864-28.777,114.646-11.139s21.815,26.456,49.664,9.747v-8.3C2421.986,1382.994,2415.952,1374.175,2400.171,1356.537Z" fill="#e2f6f8"/>
    <g id="Grupo_360" data-name="Grupo 360">
      <g id="Grupo_359" data-name="Grupo 359">
        <g id="Grupo_358" data-name="Grupo 358">
          <g id="Grupo_357" data-name="Grupo 357">
            <path id="Trazado_656" data-name="Trazado 656" d="M2248.857,1192.176a96.079,96.079,0,1,0,96.08,96.08A96.08,96.08,0,0,0,2248.857,1192.176Zm-54.89,119.751a24.136,24.136,0,1,1,24.136-24.136A24.136,24.136,0,0,1,2193.967,1311.927Zm54.89,54.89a24.135,24.135,0,1,1,24.136-24.135A24.136,24.136,0,0,1,2248.857,1366.817Zm0-109.78a24.136,24.136,0,1,1,24.136-24.136A24.136,24.136,0,0,1,2248.857,1257.037Zm54.891,54.89a24.136,24.136,0,1,1,24.135-24.136A24.136,24.136,0,0,1,2303.748,1311.927Z" fill="#7277ad"/>
          </g>
        </g>
      </g>
    </g>
    <g id="Grupo_363" data-name="Grupo 363">
      <path id="Trazado_657" data-name="Trazado 657" d="M2248.069,1336.735l-7.538,47.775h2.733l7.538-47.775Z" fill="#806055"/>
      <rect id="Rectángulo_505" data-name="Rectángulo 505" width="2.903" height="16.808" transform="translate(2246.185 1316.719)" fill="#806055"/>
      <rect id="Rectángulo_506" data-name="Rectángulo 506" width="49.354" height="7.64" rx="3.82" transform="translate(2241.142 1331.693)" fill="#57413a"/>
      <rect id="Rectángulo_507" data-name="Rectángulo 507" width="33.157" height="27.504" transform="translate(2240.837 1292.118)" fill="#57413a"/>
      <rect id="Rectángulo_508" data-name="Rectángulo 508" width="2.139" height="27.504" transform="translate(2240.837 1319.622) rotate(180)" fill="#806055"/>
      <path id="Trazado_658" data-name="Trazado 658" d="M2308.246,1351.2c1.732,7.945,8.862,25.772,8.251,28.013s-.815,4.176-.407,5.195h20.78c-2.343-3.362-8.964-4.278-13.446-8.659s-3.565-26.179-3.565-26.179Z" fill="#f57954"/>
      <path id="Trazado_659" data-name="Trazado 659" d="M2323.938,1376.227c-.079,1.1.65,2.925-1.431,4.208-1.877,1.158-4.348-.221-5.977-1.457a1.168,1.168,0,0,1-.033.235c-.611,2.241-.815,4.176-.407,5.195h20.78C2334.615,1381.173,2328.4,1380.2,2323.938,1376.227Z" fill="#45251a"/>
      <path id="Trazado_660" data-name="Trazado 660" d="M2325.436,1379.591a.1.1,0,0,1-.1-.095c0-.065-.039-1.6,1.132-2.055a.1.1,0,0,1,.071.182c-1.044.4-1.008,1.852-1.008,1.867a.1.1,0,0,1-.094.1Z" fill="#5e3324"/>
      <path id="Trazado_661" data-name="Trazado 661" d="M2327.855,1380.788a.1.1,0,0,1-.1-.095c0-.065-.04-1.6,1.132-2.055a.1.1,0,0,1,.126.056.1.1,0,0,1-.056.126c-1.044.4-1.008,1.852-1.007,1.867a.1.1,0,0,1-.095.1Z" fill="#5e3324"/>
      <path id="Trazado_662" data-name="Trazado 662" d="M2334.273,1383.309H2316.65a.1.1,0,0,1,0-.2h17.623a.1.1,0,0,1,0,.2Z" fill="#5e3324"/>
      <path id="Trazado_663" data-name="Trazado 663" d="M2298.289,1351.2c1.731,7.945,8.862,25.772,8.251,28.013s-.815,4.176-.408,5.195h20.781c-2.343-3.362-8.964-4.278-13.446-8.659s-3.566-26.179-3.566-26.179Z" fill="#ff8762"/>
      <path id="Trazado_664" data-name="Trazado 664" d="M2284.766,1335.436l9.626.153a65.213,65.213,0,0,0,3.668,16.961c15.127,2.062,22.461-.688,22.461-.688s1.6-23.836-1.375-29.566a18.911,18.911,0,0,0-8.022-8.022l-24.066-5.959-3.9-33.921-2.521-3.9s-11.231-.917-12.606-.917h-1.375l-3.9,42.631,11.919,20.4S2281.405,1335.054,2284.766,1335.436Z" fill="#fff"/>
      <path id="Trazado_665" data-name="Trazado 665" d="M2268.073,1266.754c1.413,5.424,3.171,45.61,2.941,47.291-.916,6.111,5.348,20.245,13.752,21.391-18.641-.611-23.607-1.451-24.6-6.646s-1.6-12.224-1.6-12.224c-1.528-.153-13.6-3.515-14.592-5.043s-1.3-6.57,1.528-14.974,6.265-22,12.071-25.593A29.357,29.357,0,0,1,2268.073,1266.754Z" fill="#f05e44"/>
      <path id="Trazado_666" data-name="Trazado 666" d="M2269.41,1259.19c-3.973-.178-5.144-.993-6.214-2.572s-4.94-14.618,2.954-18.336,19.66.662,19.2,8.608-1.885,10.186.917,10.441a12.843,12.843,0,0,1-7.9,2.7Z" fill="#2b1710"/>
      <path id="Trazado_667" data-name="Trazado 667" d="M2278.387,1241.045c-.306,5.234-7.22,7.411-7.946,7.6-.343.611-.725,1.261-.725,1.261-.764-2.509-3.553-1.91-3.859,0a3.6,3.6,0,0,0,3.095,4.354c-.65,3.133,2.712,4.584,2.6,4.546s-2.139.382-2.139.382c.649,3.171.879,7.678-1.337,7.564a61.656,61.656,0,0,1,.879,7.047c4.7,1.376,11.841-.362,11.841-.362a51.332,51.332,0,0,0-.534-5.387c-2.6-1.031-2.292-5.539-2.178-5.539,1.184.268,3.438-1.6,3.744-4.545s.038-5.31.191-6.3a28.461,28.461,0,0,0,.42-4.2C2282.4,1246.279,2281.519,1242.115,2278.387,1241.045Z" fill="#ff8762"/>
      <path id="Trazado_668" data-name="Trazado 668" d="M2280.259,1268.052s8.454,5.73,9.473,8.175,2.98,6.647,2.98,6.647,6.8,18.819,6.595,23a18.979,18.979,0,0,1-1.426,6.723,18.406,18.406,0,0,1-9.575-1.732c-4.482-2.343-5.3-12.835-5.908-19.15S2280.259,1268.052,2280.259,1268.052Z" fill="#f05e44"/>
      <path id="Trazado_669" data-name="Trazado 669" d="M2293.588,1310.581c-2.611,0-3.79-1.377-5.064-4.006-1.045-2.156-1.292-6.588-1.553-11.279a87.715,87.715,0,0,0-.9-9.833.1.1,0,1,1,.192-.034,87.732,87.732,0,0,1,.9,9.856c.26,4.671.5,9.084,1.533,11.2,1.594,3.288,2.95,4.517,7.227,3.615a.1.1,0,0,1,.115.075.1.1,0,0,1-.075.116A11.71,11.71,0,0,1,2293.588,1310.581Z" fill="#a3a3a3"/>
      <path id="Trazado_670" data-name="Trazado 670" d="M2275.777,1257.255c3.259-.892,4.227-.408,4.915.254C2279.571,1259.725,2277.559,1259.878,2275.777,1257.255Z" fill="#eb4242"/>
      <ellipse id="Elipse_29" data-name="Elipse 29" cx="0.675" cy="1.057" rx="0.675" ry="1.057" transform="translate(2275.14 1250.277)" fill="#2b1710"/>
      <ellipse id="Elipse_30" data-name="Elipse 30" cx="0.675" cy="1.057" rx="0.675" ry="1.057" transform="translate(2280.144 1250.353)" fill="#2b1710"/>
      <path id="Trazado_671" data-name="Trazado 671" d="M2278.578,1255.7a.1.1,0,1,1,0-.2,14.714,14.714,0,0,0,2.643-.473,4.655,4.655,0,0,0-.514-.525,6.019,6.019,0,0,1-1.34-1.578,3.116,3.116,0,0,1-.156-1.713c.034-.371.071-.791.071-1.344a.1.1,0,0,1,.2,0c0,.562-.04,1.005-.072,1.362a2.962,2.962,0,0,0,.14,1.617,5.905,5.905,0,0,0,1.3,1.514c.482.454.632.6.578.739C2281.3,1255.4,2278.694,1255.7,2278.578,1255.7Zm2.67-.686Z" fill="#2b1710"/>
      <path id="Trazado_672" data-name="Trazado 672" d="M2279.033,1257.928a8.736,8.736,0,0,1-4.213-1.024.1.1,0,0,1,.1-.165c1.638,1.028,5.046,1.352,6.078.578a.1.1,0,0,1,.137.019.1.1,0,0,1-.02.137A3.742,3.742,0,0,1,2279.033,1257.928Z" fill="#2b1710"/>
      <path id="Trazado_673" data-name="Trazado 673" d="M2279.177,1260.21a7.5,7.5,0,0,1-1.42-.16.1.1,0,0,1,.037-.192,4,4,0,0,0,2,.083.1.1,0,0,1,.129.05.1.1,0,0,1-.048.128A1.846,1.846,0,0,1,2279.177,1260.21Z" fill="#e0b3a8"/>
      <path id="Trazado_674" data-name="Trazado 674" d="M2277.508,1262.535c-.839,0-4.362-.486-6.264-2.864a.1.1,0,0,1,.152-.122c1.853,2.317,5.293,2.79,6.112,2.79a.1.1,0,0,1,0,.2Z" fill="#e0b3a8"/>
      <path id="Trazado_675" data-name="Trazado 675" d="M2278.157,1249.891a.1.1,0,0,1-.008-.195.193.193,0,0,0,.161-.08c.143-.212-.034-.89-.246-1.59a.1.1,0,0,1,.187-.057c.321,1.061.379,1.521.22,1.756a.385.385,0,0,1-.3.165Z" fill="#e0b3a8"/>
      <path id="Trazado_676" data-name="Trazado 676" d="M2272.772,1248.685c2.788.153,5.08,1.261,5,.917A3.222,3.222,0,0,0,2272.772,1248.685Z" fill="#2b1710"/>
      <path id="Trazado_677" data-name="Trazado 677" d="M2279.8,1249.755a3.367,3.367,0,0,1,2.216,0C2281.023,1248.15,2279.915,1249.373,2279.8,1249.755Z" fill="#2b1710"/>
      <path id="Trazado_678" data-name="Trazado 678" d="M2268.83,1253.54a1.154,1.154,0,0,1-.91-.482,1.213,1.213,0,0,1-.187-1.286,1.1,1.1,0,0,1,1.143-.459,2.989,2.989,0,0,0-1.5-1.83.8.8,0,0,0-.844.275.1.1,0,0,1-.143-.133.99.99,0,0,1,1.041-.329,3.188,3.188,0,0,1,1.673,2.109.1.1,0,0,1-.024.085.1.1,0,0,1-.083.03c-.547-.065-.922.055-1.088.348a1.018,1.018,0,0,0,.171,1.071.924.924,0,0,0,.979.376.1.1,0,1,1,.051.189A1.078,1.078,0,0,1,2268.83,1253.54Z" fill="#e0b3a8"/>
      <path id="Trazado_679" data-name="Trazado 679" d="M2269.894,1255.014a.917.917,0,1,1-.917-.917A.917.917,0,0,1,2269.894,1255.014Z" fill="#fff"/>
      <path id="Trazado_680" data-name="Trazado 680" d="M2286.218,1283.1s-.306-9.091-.688-9.55c-.993-2.215-.458-5.73.917-6.647s.535-2.75.535-2.75a1.434,1.434,0,0,0-.165.147,1.015,1.015,0,0,1-1.554-.137,2.175,2.175,0,0,1-.268-.545c-1.146-.687-.382-2.979-.382-2.979s4.05-1.3,4.813-.917,3.591,4.584,3.209,5.806-2.9,5.654-2.979,6.723,3.056,10.62,3.056,10.62C2289.656,1286.006,2286.982,1284.707,2286.218,1283.1Z" fill="#ff8762"/>
      <path id="Trazado_681" data-name="Trazado 681" d="M2287.173,1268.494a.1.1,0,0,1-.1-.093c-.056-1.189,1.3-2.769,1.819-3.171a6.637,6.637,0,0,1-1.394-2.018,5.71,5.71,0,0,0-.311.708.1.1,0,0,1-.185-.062,7.282,7.282,0,0,1,.446-.972.1.1,0,0,1,.1-.048.1.1,0,0,1,.078.084,6,6,0,0,0,1.482,2.254.1.1,0,0,1,.027.082.1.1,0,0,1-.048.071c-.371.212-1.878,1.88-1.823,3.063a.1.1,0,0,1-.093.1Z" fill="#e0b3a8"/>
      <path id="Trazado_682" data-name="Trazado 682" d="M2285.205,1263.337a.107.107,0,0,1-.03-.005.1.1,0,0,1-.064-.117c0-.017.006-.06.011-.12.052-.646.141-1.332.409-1.521.331-.233,2.562-1.1,2.657-1.138a.1.1,0,0,1,.071.182c-.8.309-2.366.94-2.615,1.116-.152.107-.263.571-.328,1.377a.85.85,0,0,1-.018.159A.1.1,0,0,1,2285.205,1263.337Z" fill="#e0b3a8"/>
      <g id="Grupo_361" data-name="Grupo 361">
        <path id="Trazado_683" data-name="Trazado 683" d="M2283.009,1317.483c-.229,1.069-4.126,3.743-4.126,3.743l3.668,2.368a15.421,15.421,0,0,0,3.9-2.292l-.229-2.673Z" fill="#1fadb0"/>
        <path id="Trazado_684" data-name="Trazado 684" d="M2284.537,1313.713c.2-2.648,2.954-4.278,2.954-4.278l25.925,1.248-7.156,15.229-21.341-10.034Z" fill="#1fadb0"/>
        <ellipse id="Elipse_31" data-name="Elipse 31" cx="8.659" cy="5.297" rx="8.659" ry="5.297" transform="translate(2302.387 1324.143) rotate(-63.172)" fill="#79e6e8"/>
        <path id="Trazado_685" data-name="Trazado 685" d="M2308.144,1314.427a2.973,2.973,0,0,0-.685.082,13.981,13.981,0,0,0-2.045,4.088,2.979,2.979,0,1,0,2.73-4.17Z" fill="#bdfeff"/>
      </g>
      <path id="Trazado_686" data-name="Trazado 686" d="M2267.042,1309.766s13.369,3.133,13.828,3.056,7.411-.993,7.64-.993,4.278,2.521,4.278,2.521l.84,3.82c-.916,0-1.91-2.9-2.521-3.056l-1.833-.458s2.215,3.132,1.986,3.82-1.07,2.75-2.063,3.132-3.972,1.452-3.9.688.153-.917.153-1.376-.229-2.673-1.452-2.6-2.75,1.07-5.271-.382c-3.82-.764-13.676-1.3-13.905-1.452C2263.756,1313.968,2265.743,1309.613,2267.042,1309.766Z" fill="#ff8762"/>
      <path id="Trazado_687" data-name="Trazado 687" d="M2289.095,1321.222a.114.114,0,0,1-.031-.005.1.1,0,0,1-.061-.124,15.049,15.049,0,0,0,.683-2.433,16.153,16.153,0,0,0-1.437-2.551.1.1,0,1,1,.165-.1,16.318,16.318,0,0,1,1.466,2.643,15.9,15.9,0,0,1-.692,2.509A.1.1,0,0,1,2289.095,1321.222Z" fill="#e0b3a8"/>
      <path id="Trazado_688" data-name="Trazado 688" d="M2287.44,1321.731l-.02,0a.1.1,0,0,1-.075-.116c0-.016.355-1.678.38-1.974a18.755,18.755,0,0,0-.935-2.6.1.1,0,1,1,.18-.075,17.984,17.984,0,0,1,.949,2.694c-.025.308-.369,1.93-.383,2A.1.1,0,0,1,2287.44,1321.731Z" fill="#e0b3a8"/>
      <path id="Trazado_689" data-name="Trazado 689" d="M2262.228,1285.187a.1.1,0,0,1-.1-.085c-.007-.052-.779-5.325-6.489-10.535a.1.1,0,0,1-.006-.137.1.1,0,0,1,.138-.007c5.766,5.26,6.543,10.6,6.55,10.653a.1.1,0,0,1-.084.11Z" fill="#a3a3a3"/>
      <path id="Trazado_690" data-name="Trazado 690" d="M2266.1,1309.023a.1.1,0,0,1-.043-.01l-9.779-4.787a.1.1,0,0,1-.05-.117c.025-.078,2.466-7.8,4.179-12.129a.1.1,0,0,1,.127-.055.1.1,0,0,1,.054.127c-1.616,4.089-3.883,11.2-4.148,12.035l9.7,4.751a.1.1,0,0,1-.043.185Z" fill="#a3a3a3"/>
      <path id="Trazado_691" data-name="Trazado 691" d="M2253.949,1307.207a.185.185,0,0,1-.178-.1c-.188-.357.821-1.649,1.554-2.154-.3.085-.743.224-1.175.36-.616.193-1.313.413-1.98.6-.48.135-.786.134-.91,0a.246.246,0,0,1-.03-.269c.2-.5,1.839-1.479,4.371-1.65a.1.1,0,1,1,.013.2c-2.586.174-4.054,1.164-4.2,1.529-.007.018-.018.05,0,.065s.112.115.711-.054c.664-.187,1.36-.406,1.974-.6,1.612-.506,1.672-.51,1.728-.382.047.107-.07.182-.265.295a4.1,4.1,0,0,0-1.61,1.977.493.493,0,0,0,.195-.062,6.768,6.768,0,0,0,1.9-1.7.1.1,0,0,1,.155.119,6.841,6.841,0,0,1-1.971,1.761A.681.681,0,0,1,2253.949,1307.207Z" fill="#a3a3a3"/>
      <path id="Trazado_692" data-name="Trazado 692" d="M2296.122,1335.78a.185.185,0,0,1-.179-.1c-.187-.357.821-1.649,1.554-2.154-.3.085-.743.224-1.175.36-.616.194-1.313.413-1.979.6-.481.136-.787.134-.91,0a.241.241,0,0,1-.03-.269c.2-.5,1.838-1.479,4.37-1.65a.1.1,0,1,1,.013.2c-2.586.175-4.054,1.165-4.2,1.529-.007.018-.018.051-.005.065s.112.115.712-.054c.663-.187,1.359-.406,1.974-.6,1.611-.507,1.671-.51,1.727-.383.048.107-.07.182-.265.295a4.1,4.1,0,0,0-1.61,1.977.5.5,0,0,0,.2-.062,6.757,6.757,0,0,0,1.9-1.7.1.1,0,1,1,.155.118,6.824,6.824,0,0,1-1.971,1.761A.679.679,0,0,1,2296.122,1335.78Z" fill="#a3a3a3"/>
      <path id="Trazado_693" data-name="Trazado 693" d="M2313.981,1376.227c-.079,1.1.65,2.925-1.431,4.208-1.877,1.158-4.348-.221-5.977-1.457a1.134,1.134,0,0,1-.033.235c-.611,2.241-.815,4.176-.408,5.195h20.781C2324.658,1381.173,2318.44,1380.2,2313.981,1376.227Z" fill="#2b1710"/>
      <path id="Trazado_694" data-name="Trazado 694" d="M2315.478,1379.591a.1.1,0,0,1-.1-.095c0-.065-.04-1.6,1.132-2.055a.1.1,0,0,1,.07.182c-1.043.4-1.007,1.852-1.007,1.867a.1.1,0,0,1-.094.1Z" fill="#45251a"/>
      <path id="Trazado_695" data-name="Trazado 695" d="M2317.9,1380.788a.1.1,0,0,1-.1-.095c0-.065-.039-1.6,1.132-2.055a.1.1,0,0,1,.071.182c-1.044.4-1.008,1.852-1.008,1.867a.1.1,0,0,1-.094.1Z" fill="#45251a"/>
      <path id="Trazado_696" data-name="Trazado 696" d="M2324.315,1383.309h-17.622a.1.1,0,1,1,0-.2h17.622a.1.1,0,1,1,0,.2Z" fill="#45251a"/>
      <g id="Grupo_362" data-name="Grupo 362">
        <path id="Trazado_697" data-name="Trazado 697" d="M2279.609,1384.561l-14.028-58.488h-18.174v-3.124h20.637l14.78,61.63Z" fill="#806055"/>
      </g>
    </g>
    <g id="Grupo_367" data-name="Grupo 367">
      <g id="Grupo_364" data-name="Grupo 364">
        <path id="Trazado_698" data-name="Trazado 698" d="M2142.317,1293.595h-26.689v-31.431h18.8l7.89,7.89Zm-25.9-.791h25.107v-22.423l-7.427-7.427h-17.68Z" fill="#78abd4"/>
      </g>
      <g id="Grupo_365" data-name="Grupo 365">
        <path id="Trazado_699" data-name="Trazado 699" d="M2140.28,1269.277h-5.016v-5.5h.791v4.711h4.225Z" fill="#78abd4"/>
      </g>
      <g id="Grupo_366" data-name="Grupo 366">
        <path id="Trazado_700" data-name="Trazado 700" d="M2124.5,1286.348v-12.635l11.684,5.842Zm.791-11.355v9.981l9.229-5.366Z" fill="#78abd4"/>
      </g>
    </g>
    <g id="Grupo_378" data-name="Grupo 378">
      <g id="Grupo_368" data-name="Grupo 368">
        <path id="Trazado_701" data-name="Trazado 701" d="M2452.236,1194.582h-28.027v-26.568h28.027Zm-27.236-.791h26.445v-24.986H2425Z" fill="#78abd4"/>
      </g>
      <g id="Grupo_369" data-name="Grupo 369">
        <path id="Trazado_702" data-name="Trazado 702" d="M2452.236,1188.989h-28.027v-15.382h28.027ZM2425,1188.2h26.445v-13.8H2425Z" fill="#78abd4"/>
      </g>
      <g id="Grupo_370" data-name="Grupo 370">
        <path id="Trazado_703" data-name="Trazado 703" d="M2430.386,1173.182h-4.52v-3.891h4.52Zm-3.73-.79h2.94v-2.31h-2.94Z" fill="#78abd4"/>
      </g>
      <g id="Grupo_371" data-name="Grupo 371">
        <path id="Trazado_704" data-name="Trazado 704" d="M2437.1,1173.182h-4.52v-3.891h4.52Zm-3.73-.79h2.94v-2.31h-2.94Z" fill="#78abd4"/>
      </g>
      <g id="Grupo_372" data-name="Grupo 372">
        <path id="Trazado_705" data-name="Trazado 705" d="M2443.818,1173.182H2439.3v-3.891h4.521Zm-3.73-.79h2.939v-2.31h-2.939Z" fill="#78abd4"/>
      </g>
      <g id="Grupo_373" data-name="Grupo 373">
        <path id="Trazado_706" data-name="Trazado 706" d="M2450.534,1173.182h-4.521v-3.891h4.521Zm-3.73-.79h2.939v-2.31H2446.8Z" fill="#78abd4"/>
      </g>
      <g id="Grupo_374" data-name="Grupo 374">
        <path id="Trazado_707" data-name="Trazado 707" d="M2430.386,1193.38h-4.52v-3.892h4.52Zm-3.73-.791h2.94v-2.31h-2.94Z" fill="#78abd4"/>
      </g>
      <g id="Grupo_375" data-name="Grupo 375">
        <path id="Trazado_708" data-name="Trazado 708" d="M2437.1,1193.38h-4.52v-3.892h4.52Zm-3.73-.791h2.94v-2.31h-2.94Z" fill="#78abd4"/>
      </g>
      <g id="Grupo_376" data-name="Grupo 376">
        <path id="Trazado_709" data-name="Trazado 709" d="M2443.818,1193.38H2439.3v-3.892h4.521Zm-3.73-.791h2.939v-2.31h-2.939Z" fill="#78abd4"/>
      </g>
      <g id="Grupo_377" data-name="Grupo 377">
        <path id="Trazado_710" data-name="Trazado 710" d="M2450.534,1193.38h-4.521v-3.892h4.521Zm-3.73-.791h2.939v-2.31H2446.8Z" fill="#78abd4"/>
      </g>
    </g>
    <g id="Grupo_381" data-name="Grupo 381">
      <g id="Grupo_379" data-name="Grupo 379">
        <path id="Trazado_711" data-name="Trazado 711" d="M2341.891,1077.049a12.554,12.554,0,1,1,12.555-12.554A12.569,12.569,0,0,1,2341.891,1077.049Zm0-24.318a11.764,11.764,0,1,0,11.764,11.764A11.778,11.778,0,0,0,2341.891,1052.731Z" fill="#78abd4"/>
      </g>
      <g id="Grupo_380" data-name="Grupo 380">
        <path id="Trazado_712" data-name="Trazado 712" d="M2338.132,1070.836V1058.2l11.684,5.842Zm.791-11.355v9.981l9.229-5.366Z" fill="#78abd4"/>
      </g>
    </g>
    <g id="Grupo_385" data-name="Grupo 385">
      <g id="Grupo_382" data-name="Grupo 382">
        <path id="Trazado_713" data-name="Trazado 713" d="M2138.989,1224.941h-3.2v-5.532h3.2Zm-2.4-.79h1.614V1220.2h-1.614Z" fill="#78abd4"/>
      </g>
      <g id="Grupo_383" data-name="Grupo 383">
        <path id="Trazado_714" data-name="Trazado 714" d="M2144.522,1228.329l-6.323-3.552v-5.2l6.323-3.552Zm-5.533-4.014,4.742,2.663v-9.606l-4.742,2.663Z" fill="#78abd4"/>
      </g>
      <g id="Grupo_384" data-name="Grupo 384">
        <path id="Trazado_715" data-name="Trazado 715" d="M2145.971,1224.151v-.791a1.185,1.185,0,1,0,0-2.37v-.791a1.976,1.976,0,0,1,0,3.952Z" fill="#78abd4"/>
      </g>
    </g>
    <g id="Grupo_388" data-name="Grupo 388">
      <g id="Grupo_386" data-name="Grupo 386">
        <path id="Trazado_716" data-name="Trazado 716" d="M2373.377,1201.978v-12.635l11.684,5.842Zm.791-11.355v9.981l9.23-5.367Z" fill="#78abd4"/>
      </g>
      <g id="Grupo_387" data-name="Grupo 387">
        <path id="Trazado_717" data-name="Trazado 717" d="M2379.9,1201.978v-3.9h.791v2.523l9.23-5.366-9.23-4.615v1.966h-.791v-3.246l11.684,5.842Z" fill="#78abd4"/>
      </g>
    </g>
    <g id="Grupo_391" data-name="Grupo 391">
      <g id="Grupo_389" data-name="Grupo 389">
        <path id="Trazado_718" data-name="Trazado 718" d="M2599.092,1213.2v-12.635l11.684,5.842Zm.791-11.356v9.981l9.23-5.366Z" fill="#78abd4"/>
      </g>
      <g id="Grupo_390" data-name="Grupo 390">
        <path id="Trazado_719" data-name="Trazado 719" d="M2605.618,1213.2v-3.9h.791v2.523l9.23-5.366-9.23-4.615v1.966h-.791v-3.245l11.684,5.842Z" fill="#78abd4"/>
      </g>
    </g>
    <g id="Grupo_392" data-name="Grupo 392">
      <path id="Trazado_720" data-name="Trazado 720" d="M2648.676,1254.456l-6.992-5.08-6.992,5.08,2.67-8.22-6.992-5.08h8.643l2.671-8.22,2.671,8.22H2653l-6.992,5.08Zm-6.992-6.169,5.316,3.862-2.03-6.249,5.316-3.863h-6.571l-2.031-6.249-2.031,6.249h-6.571l5.316,3.863-2.03,6.249Z" fill="#78abd4"/>
    </g>
    <g id="Grupo_393" data-name="Grupo 393">
      <path id="Trazado_721" data-name="Trazado 721" d="M2323.77,1116.139l-6.992-5.08-6.992,5.08,2.67-8.22-6.992-5.08h8.643l2.671-8.22,2.671,8.22h8.643l-6.992,5.08Zm-6.992-6.169,5.316,3.862-2.03-6.249,5.316-3.863h-6.571l-2.031-6.249-2.031,6.249h-6.571l5.317,3.863-2.031,6.249Z" fill="#78abd4"/>
    </g>
    <g id="Grupo_394" data-name="Grupo 394">
      <path id="Trazado_722" data-name="Trazado 722" d="M2520.9,1093.056v-12.635l11.683,5.842Zm.791-11.355v9.98l9.229-5.366Z" fill="#78abd4"/>
    </g>
    <g id="Grupo_395" data-name="Grupo 395">
      <path id="Trazado_723" data-name="Trazado 723" d="M2612.169,1305.156v-12.635l11.684,5.842Zm.791-11.355v9.98l9.23-5.366Z" fill="#78abd4"/>
    </g>
  </g>
</svg>
